<?xml version="1.0" standalone="no"?>
<!DOCTYPE svg PUBLIC "-//W3C//DTD SVG 20010904//EN"
 "http://www.w3.org/TR/2001/REC-SVG-20010904/DTD/svg10.dtd">
<svg version="1.0" xmlns="http://www.w3.org/2000/svg"
 width="768.000000pt" height="768.000000pt" viewBox="0 0 768.000000 768.000000"
 preserveAspectRatio="xMidYMid meet">
<metadata>
Created by potrace 1.14, written by Peter Selinger 2001-2017
</metadata>
<g transform="translate(0.000000,768.000000) scale(0.100000,-0.100000)"
fill="#000000" stroke="none">
<path d="M1537 7094 c-3 -3 -3 -13 1 -22 5 -14 3 -15 -10 -4 -12 10 -20 8 -41
-8 -14 -11 -28 -16 -31 -11 -4 5 -15 9 -26 8 -10 -1 -16 -5 -14 -9 3 -5 9 -6
14 -3 5 3 11 2 13 -2 3 -5 -8 -9 -24 -9 -17 -1 -26 2 -22 9 3 6 1 7 -6 3 -6
-4 -9 -11 -6 -16 3 -5 1 -11 -5 -15 -5 -3 -10 -2 -10 3 0 6 -10 5 -24 -1 -13
-7 -22 -16 -18 -22 3 -5 -3 -2 -14 7 -19 16 -20 16 -21 -3 -1 -10 2 -17 8 -14
5 4 9 1 9 -4 0 -14 -17 -14 -25 -2 -7 12 -49 5 -53 -9 -2 -6 -9 -7 -15 -3 -7
3 -3 -4 8 -18 13 -15 14 -19 3 -11 -14 11 -19 9 -33 -10 l-17 -23 6 25 c3 14
3 19 0 12 -3 -6 -10 -10 -15 -7 -5 4 -6 -1 -3 -9 6 -15 -6 -21 -30 -17 -5 1
-6 -6 -2 -15 5 -14 4 -15 -8 -5 -11 9 -16 9 -22 0 -4 -7 -3 -9 3 -6 6 4 13 1
16 -7 4 -9 0 -12 -12 -9 -9 2 -28 -6 -42 -19 -14 -13 -39 -34 -55 -47 -16 -12
-24 -20 -17 -17 6 4 15 2 18 -4 4 -6 3 -10 -2 -9 -29 5 -45 -2 -39 -17 6 -15
4 -15 -11 -3 -11 9 -14 10 -9 2 4 -8 2 -13 -4 -13 -6 0 -8 -5 -4 -12 5 -9 2
-8 -9 1 -10 8 -20 11 -24 7 -3 -3 -2 -6 4 -6 6 0 13 -6 16 -14 4 -9 0 -12 -13
-9 -17 5 -46 -28 -34 -39 2 -3 -3 -11 -13 -19 -11 -9 -14 -10 -9 -1 4 6 2 12
-3 12 -6 0 -11 -7 -11 -16 0 -9 -5 -12 -12 -8 -8 5 -9 2 -4 -11 6 -16 4 -16
-10 -4 -16 13 -16 12 -5 -8 7 -15 8 -23 1 -23 -5 0 -10 6 -11 13 0 6 -5 1 -10
-12 -6 -16 -14 -21 -25 -17 -15 6 -15 4 -3 -11 12 -15 12 -16 -4 -10 -14 5
-16 2 -13 -18 3 -15 1 -23 -5 -20 -5 4 -7 11 -4 16 4 5 4 9 1 9 -3 0 -10 -10
-17 -21 -9 -17 -8 -20 2 -14 8 5 10 4 5 -3 -4 -7 -16 -12 -27 -12 -10 0 -19
-5 -19 -11 0 -5 4 -8 8 -5 5 3 9 -1 9 -8 0 -8 -8 -11 -19 -8 -10 2 -18 -1 -18
-7 0 -7 5 -9 12 -5 7 4 8 3 4 -5 -6 -9 -11 -9 -22 0 -12 10 -15 10 -12 -2 2
-8 8 -17 13 -21 6 -4 2 -8 -8 -8 -10 0 -15 -4 -12 -10 3 -5 2 -10 -4 -10 -5 0
-12 6 -15 13 -3 6 -3 0 -1 -15 2 -15 -1 -31 -7 -34 -7 -5 -8 -2 -4 7 4 8 1 6
-7 -3 -8 -10 -16 -16 -19 -13 -2 3 -5 -2 -5 -10 0 -8 3 -12 7 -10 4 2 7 -2 7
-10 0 -11 -5 -12 -20 -4 -10 6 -21 8 -25 5 -3 -3 1 -6 8 -6 10 0 9 -5 -3 -18
-10 -10 -14 -22 -10 -26 11 -10 12 -37 2 -30 -5 3 -7 10 -4 15 4 5 1 9 -4 9
-6 0 -11 -10 -11 -21 0 -18 -2 -19 -15 -9 -13 11 -14 10 -9 -4 3 -9 10 -16 16
-16 5 0 6 -5 3 -10 -4 -6 -12 -7 -18 -3 -8 4 -7 1 1 -9 11 -14 10 -16 -5 -13
-10 1 -17 8 -15 15 1 6 -3 8 -9 5 -8 -5 -8 -10 0 -18 15 -15 14 -30 -2 -21 -9
6 -9 4 1 -8 10 -13 10 -19 -2 -31 -11 -11 -12 -17 -3 -27 7 -8 -1 -6 -18 4
-16 10 -24 13 -17 5 14 -16 16 -43 2 -34 -5 3 -10 2 -10 -4 0 -5 6 -11 13 -14
9 -3 9 -8 -2 -18 -12 -12 -13 -12 -6 1 8 13 7 13 -8 1 -18 -14 -23 -26 -8 -16
17 10 21 -13 5 -29 -8 -9 -11 -16 -5 -16 6 0 11 -5 11 -11 0 -6 -10 -8 -22 -5
-13 3 -17 3 -10 0 10 -5 10 -9 0 -22 -11 -14 -10 -15 7 -9 16 6 15 3 -5 -14
-14 -11 -19 -18 -12 -14 6 3 12 0 13 -7 0 -7 2 -21 4 -32 5 -23 -5 -47 -15
-41 -5 3 -5 -7 -1 -23 5 -16 5 -36 0 -45 -7 -11 -4 -19 8 -26 15 -8 15 -10 3
-11 -9 0 -16 -9 -16 -19 0 -11 3 -18 6 -16 3 2 5 -30 4 -71 0 -41 3 -74 7 -74
5 0 9 -5 9 -11 0 -5 -4 -7 -10 -4 -5 3 -10 1 -10 -4 0 -6 6 -11 13 -11 8 0 7
-4 -3 -10 -12 -8 -12 -10 5 -10 16 0 17 -2 5 -9 -8 -6 -19 -7 -25 -3 -5 3 -4
-2 3 -11 8 -9 11 -21 7 -27 -7 -11 19 -42 29 -35 3 3 4 2 1 -2 -3 -3 1 -13 8
-22 9 -12 5 -11 -18 3 -29 19 -30 19 -14 0 9 -10 14 -24 12 -31 -2 -6 1 -14 6
-18 7 -4 9 1 5 12 -5 14 -4 15 4 4 7 -10 7 -21 1 -33 -8 -14 -6 -16 7 -11 14
5 15 3 5 -15 -10 -19 -9 -22 6 -22 15 0 15 -2 3 -9 -8 -6 -18 -7 -22 -5 -4 3
-8 0 -8 -6 0 -7 7 -9 16 -6 11 4 15 2 11 -6 -6 -18 11 -60 22 -53 5 3 13 0 17
-6 4 -7 3 -9 -3 -6 -6 4 -13 -2 -16 -13 -3 -11 -1 -23 4 -26 5 -3 7 -10 4 -15
-3 -5 2 -6 12 -3 16 5 15 3 -2 -12 -18 -15 -18 -16 -1 -10 14 5 17 2 12 -10
-4 -11 -2 -15 7 -11 8 3 14 -1 14 -9 0 -7 -4 -11 -9 -8 -4 3 -8 0 -8 -5 0 -6
8 -11 18 -12 14 0 14 -2 -3 -9 -19 -8 -19 -9 1 -9 12 -1 25 -8 28 -17 6 -15 4
-15 -10 -3 -16 13 -16 12 -6 -7 6 -12 8 -24 5 -28 -5 -5 10 -10 28 -8 3 1 6
-6 6 -13 0 -11 -4 -12 -14 -3 -11 8 -12 7 -7 -6 3 -9 10 -16 14 -16 5 0 12 -9
15 -20 4 -11 10 -18 15 -15 5 3 12 0 16 -6 5 -8 3 -9 -6 -4 -10 6 -12 4 -7 -9
4 -10 3 -15 -3 -11 -19 12 -10 -7 11 -24 14 -11 22 -31 24 -56 1 -22 7 -41 14
-43 6 -2 11 -10 11 -18 0 -8 5 -14 11 -14 5 0 8 -4 4 -9 -3 -6 3 -14 12 -20
16 -9 15 -10 -7 -11 -19 0 -22 -2 -10 -9 8 -6 18 -7 24 -4 5 4 6 1 1 -8 -12
-18 -14 -49 -4 -54 4 -3 6 6 5 20 -2 13 1 22 5 19 5 -3 9 -12 9 -20 0 -8 4
-13 9 -10 11 7 9 -13 -3 -33 -7 -10 -6 -12 4 -6 10 6 12 4 7 -8 -7 -19 8 -32
19 -16 4 8 3 9 -4 5 -16 -10 -15 -1 1 12 9 8 12 2 14 -26 1 -20 7 -38 13 -40
5 -2 7 -9 3 -15 -4 -7 0 -8 13 -3 15 6 17 5 6 -6 -10 -10 -8 -15 10 -26 13 -8
15 -11 5 -8 -26 8 -21 -1 11 -19 l27 -15 -30 5 c-16 3 -23 2 -15 -2 20 -8 74
-63 63 -63 -4 0 0 -5 9 -10 9 -6 15 -19 13 -30 -2 -11 1 -23 7 -26 7 -5 8 -2
3 6 -6 9 -4 11 4 5 7 -4 10 -16 8 -27 -3 -11 -3 -17 0 -14 3 3 12 -2 20 -12 9
-10 11 -11 7 -2 -7 13 -6 13 9 1 10 -8 17 -21 16 -30 -3 -29 1 -41 12 -41 8 0
8 5 -1 15 -7 9 -8 15 -2 15 12 0 24 -28 17 -40 -3 -4 2 -13 10 -20 8 -7 12
-17 9 -22 -4 -6 3 -5 16 2 19 10 21 10 11 -7 -6 -13 -6 -24 1 -34 8 -11 9 -11
4 4 -3 11 0 17 9 17 9 0 12 -8 10 -21 -4 -18 -2 -19 12 -7 12 9 15 9 9 0 -4
-7 -1 -15 8 -18 9 -3 16 -17 16 -31 0 -23 2 -24 17 -12 15 13 15 12 5 -8 -16
-29 -15 -41 1 -19 15 20 14 21 19 -33 2 -12 8 -16 20 -13 20 5 25 -14 6 -20
-7 -3 -5 -7 6 -11 10 -4 15 -3 11 3 -3 6 -1 10 6 10 6 0 9 -8 6 -20 -3 -11 0
-18 7 -17 6 1 10 -4 8 -11 -1 -8 2 -11 7 -7 6 3 7 13 4 23 -8 22 1 13 17 -17
10 -19 9 -22 -1 -16 -8 5 -10 4 -5 -3 4 -7 2 -12 -4 -12 -6 0 -8 -5 -4 -11 4
-7 9 -7 13 -2 3 5 14 12 24 16 15 6 16 4 6 -14 -6 -11 -8 -23 -5 -27 3 -3 6 0
6 7 0 8 5 7 16 -4 9 -8 13 -23 10 -32 -5 -12 -3 -13 6 -6 9 8 19 5 33 -9 18
-18 19 -19 1 -12 -13 5 -23 1 -32 -11 -9 -12 -14 -14 -14 -6 0 11 -3 11 -17 0
-11 -10 -14 -10 -9 -1 9 16 -6 16 -23 0 -11 -11 -13 -10 -8 4 4 12 2 15 -9 11
-7 -3 -14 -10 -14 -15 0 -6 -9 0 -21 13 l-20 24 11 -24 c10 -19 10 -22 -2 -15
-17 11 -32 12 -39 1 -3 -4 -11 -2 -17 6 -10 12 -8 14 14 11 14 -1 23 0 20 4
-6 5 -49 12 -89 13 -9 0 -15 4 -12 9 3 4 -3 7 -12 6 -18 -3 -21 -12 -7 -24 4
-4 4 -1 -1 7 -6 10 -4 12 4 7 9 -6 9 -11 0 -22 -12 -15 -23 -19 -15 -6 8 13
-33 44 -47 35 -7 -4 -18 -8 -25 -9 -11 -2 -11 0 0 13 12 15 11 15 -10 4 -13
-7 -26 -10 -29 -7 -4 3 -13 0 -22 -6 -13 -10 -14 -10 -3 2 17 20 15 35 -3 20
-9 -7 -19 -10 -22 -6 -4 4 -2 11 6 15 10 6 9 10 -4 14 -9 4 -13 3 -10 -3 4 -6
-5 -9 -19 -8 -15 1 -26 6 -26 11 0 4 -6 5 -12 0 -19 -11 -39 -13 -32 -2 3 5
10 6 16 3 7 -4 8 -2 4 4 -4 6 -13 9 -21 6 -8 -3 -22 2 -31 11 -14 13 -19 14
-25 3 -7 -11 -9 -11 -9 0 0 7 -5 10 -10 7 -6 -3 -10 2 -10 11 0 16 -1 16 -14
-1 -13 -18 -14 -17 -30 7 -16 24 -55 51 -41 28 3 -6 1 -10 -4 -10 -6 0 -11 5
-11 11 0 5 -4 8 -9 4 -5 -3 -12 -1 -16 5 -4 6 -12 7 -18 4 -8 -5 -8 -3 0 7 7
7 13 17 13 23 0 5 -10 -2 -21 -15 l-21 -24 7 23 c6 21 5 23 -12 14 -12 -7 -25
-7 -34 -1 -11 7 -11 9 -1 9 8 0 12 6 9 13 -2 6 -9 12 -15 12 -6 0 -16 5 -23
12 -14 14 -42 6 -32 -10 3 -5 2 -7 -4 -4 -6 4 -9 17 -8 31 3 23 -14 30 -31 13
-4 -4 -12 -7 -18 -7 -6 0 -5 5 2 12 7 7 12 17 12 22 0 6 -5 4 -10 -4 -7 -11
-10 -11 -10 -2 0 7 -5 10 -10 7 -6 -3 -10 0 -10 8 0 9 -9 13 -24 12 -18 -2
-23 1 -19 12 5 12 7 12 14 1 5 -7 9 -8 9 -2 0 18 -13 24 -27 13 -10 -9 -13 -8
-13 4 0 9 -4 19 -10 22 -6 4 -7 -1 -3 -12 7 -17 6 -17 -11 0 -10 9 -22 15 -27
12 -5 -4 -9 -1 -9 5 0 6 7 10 16 8 10 -2 19 4 21 12 4 12 3 12 -5 1 -6 -9 -12
-10 -16 -3 -4 6 -13 9 -21 5 -11 -3 -13 -1 -9 10 3 8 0 18 -7 23 -8 4 -10 3
-5 -4 4 -7 2 -12 -3 -12 -6 0 -11 5 -11 11 0 5 -6 7 -13 3 -9 -6 -9 -4 0 7 7
7 13 18 13 23 0 6 -5 4 -10 -4 -9 -13 -10 -13 -10 0 0 13 -1 13 -10 0 -9 -13
-10 -13 -10 1 0 8 6 21 12 29 7 8 2 6 -11 -5 -14 -11 -21 -14 -17 -7 5 8 1 12
-11 12 -14 0 -15 2 -4 9 11 7 11 13 -3 32 l-16 23 -6 -32 c-4 -17 -10 -29 -15
-26 -13 8 -11 -10 3 -25 10 -11 10 -13 1 -7 -7 4 -13 3 -13 -3 0 -5 6 -12 13
-14 9 -4 9 -6 -1 -6 -10 -1 -10 -6 -1 -23 10 -20 10 -21 -2 -11 -11 9 -14 7
-14 -12 0 -13 3 -21 8 -18 4 2 7 -1 7 -6 0 -6 -5 -11 -11 -11 -7 0 -5 -9 5
-24 11 -18 13 -27 4 -32 -7 -4 -8 -3 -4 4 5 8 1 10 -10 5 -14 -5 -13 -8 7 -20
22 -13 22 -13 2 -8 -12 3 -24 1 -28 -4 -3 -7 0 -8 9 -5 20 8 32 -22 17 -40
-10 -11 -8 -17 6 -25 12 -7 13 -10 4 -11 -9 0 -10 -4 -4 -12 11 -15 11 -28 0
-45 -5 -8 -4 -13 2 -13 6 0 11 -7 11 -16 0 -9 -5 -12 -12 -8 -7 4 -6 -1 3 -12
18 -21 14 -48 -4 -37 -8 5 -8 2 0 -9 7 -8 10 -18 6 -21 -3 -4 -1 -13 5 -20 7
-8 8 -18 4 -22 -4 -5 -2 -5 5 -1 6 3 14 2 18 -4 3 -5 1 -10 -6 -10 -7 0 -6 -9
5 -25 13 -20 14 -30 5 -46 -8 -15 -8 -19 0 -15 15 10 14 -7 -2 -23 -9 -11 -9
-13 1 -7 6 4 12 2 12 -4 0 -6 5 -8 10 -5 6 3 10 -5 10 -19 0 -14 8 -30 18 -36
16 -11 16 -11 -1 -6 -9 3 -17 1 -17 -4 0 -6 5 -10 11 -10 6 0 9 -9 6 -20 -3
-13 0 -20 9 -20 8 0 11 6 7 18 -3 9 -3 14 1 10 4 -3 8 -12 10 -20 1 -7 6 -20
11 -28 8 -13 7 -13 -8 -1 -21 17 -22 8 -1 -13 9 -10 11 -16 4 -16 -7 0 -5 -7
5 -16 10 -10 13 -24 9 -38 -6 -20 -5 -20 8 -3 13 18 15 18 29 1 7 -10 9 -15 3
-11 -7 4 -17 0 -24 -8 -11 -13 -10 -14 4 -9 13 5 17 2 14 -12 -2 -11 2 -18 9
-17 7 2 13 -4 13 -13 0 -10 6 -14 15 -11 11 5 12 1 5 -19 -6 -14 -6 -23 -1
-20 4 3 17 -1 27 -9 18 -15 18 -15 -1 -9 -15 4 -13 0 8 -16 15 -12 27 -29 27
-37 0 -10 6 -13 18 -9 15 5 15 5 1 -7 -15 -11 -14 -14 10 -31 l26 -20 -19 22
c-11 12 -14 22 -9 22 14 0 43 -62 35 -75 -3 -5 1 -4 10 3 14 11 18 10 28 -10
11 -22 10 -22 -4 -4 -14 17 -16 18 -16 3 0 -9 6 -18 13 -19 6 0 17 -2 22 -3 6
-2 17 -3 25 -4 13 -1 13 -3 1 -10 -8 -5 -16 -16 -17 -24 -2 -15 12 -17 33 -4
6 4 15 2 19 -4 4 -8 3 -9 -4 -5 -7 4 -12 2 -12 -3 0 -6 5 -11 10 -11 6 0 10
-7 10 -15 0 -13 27 -21 55 -15 6 1 7 -2 2 -6 -4 -4 1 -16 10 -26 15 -17 15
-21 3 -29 -11 -8 -9 -9 9 -4 16 5 21 4 17 -4 -4 -7 1 -11 12 -11 24 0 35 -23
19 -40 -9 -10 -9 -11 1 -6 7 4 19 2 27 -4 8 -6 20 -8 26 -4 8 4 9 3 5 -4 -4
-7 -2 -12 3 -12 6 0 11 -7 11 -15 0 -8 9 -15 21 -15 13 0 18 -4 13 -12 -5 -8
-2 -9 10 -5 9 4 15 3 11 -2 -9 -15 6 -41 23 -41 13 0 12 3 -4 16 -18 14 -18
15 4 4 12 -6 22 -17 22 -25 0 -8 4 -15 9 -15 5 0 12 -8 14 -17 4 -17 5 -17 6
0 0 9 6 17 11 17 18 0 23 -29 9 -48 -13 -16 -12 -16 7 1 11 9 25 17 30 17 5 0
2 -5 -6 -10 -13 -8 -13 -11 -1 -22 10 -10 12 -10 7 0 -4 6 -2 12 3 12 6 0 11
-7 11 -16 0 -8 5 -12 10 -9 6 3 13 -1 16 -9 3 -9 13 -16 21 -16 8 0 12 -4 9
-9 -3 -4 6 -13 20 -20 14 -6 22 -16 18 -22 -5 -8 -1 -8 14 0 32 17 37 13 16
-11 -15 -19 -16 -20 -1 -9 13 10 17 11 17 1 0 -9 4 -9 17 1 11 10 14 10 9 2
-4 -8 -2 -13 5 -13 8 0 7 -5 -2 -17 -13 -15 -12 -15 11 -3 23 12 24 12 11 -4
-12 -15 -12 -17 0 -14 8 2 17 8 21 13 5 6 8 5 9 -2 1 -7 2 -18 3 -25 0 -6 16
-12 33 -12 22 -1 38 -8 48 -24 9 -12 20 -20 25 -17 5 3 11 1 15 -4 3 -6 13 -8
23 -5 14 5 14 4 2 -4 -9 -7 -18 -8 -26 -1 -8 7 -14 6 -19 -1 -4 -6 -1 -9 7 -8
7 2 12 -3 10 -11 -2 -11 0 -12 11 -3 11 10 17 9 26 -1 6 -8 7 -18 3 -22 -4 -5
-1 -5 6 -1 7 4 10 11 7 16 -3 4 2 7 10 6 9 -1 16 -6 17 -12 1 -5 13 -18 26
-28 21 -17 27 -17 46 -6 20 12 20 12 4 -6 -16 -19 -16 -20 3 -33 13 -7 18 -8
14 -1 -4 7 2 10 22 7 19 -3 27 -9 25 -21 -2 -11 4 -16 20 -16 19 0 20 -2 8
-10 -8 -5 -10 -10 -4 -10 5 0 16 6 23 13 11 10 13 10 7 -1 -4 -6 -2 -12 4 -12
6 0 8 -5 4 -13 -6 -9 -4 -9 8 1 13 10 17 10 23 -5 5 -10 8 -21 7 -24 0 -3 5
-6 13 -6 11 0 12 5 4 21 -9 19 -9 19 4 4 8 -10 17 -15 20 -12 3 3 3 -3 0 -14
-2 -11 0 -23 6 -26 7 -5 8 -1 4 10 -4 12 -3 15 5 10 7 -4 12 -15 13 -24 0 -14
2 -13 9 3 6 14 9 16 10 5 2 -8 2 -19 1 -24 -1 -5 6 -3 15 5 10 8 15 10 12 4
-3 -5 0 -15 7 -22 11 -10 15 -10 19 0 4 7 4 2 2 -11 -2 -12 0 -20 4 -17 5 3
16 -3 26 -12 10 -10 19 -17 21 -15 9 7 33 0 28 -8 -3 -5 -1 -10 5 -10 6 0 22
-11 34 -25 18 -19 31 -24 51 -21 22 4 25 3 15 -10 -15 -17 -24 -19 -14 -2 4 7
3 8 -5 4 -16 -10 -2 -29 16 -22 11 5 13 2 9 -10 -5 -13 -3 -14 7 -6 9 8 17 8
27 0 13 -8 13 -9 -1 -5 -9 3 -16 -1 -16 -8 0 -7 7 -12 16 -11 9 1 15 -5 14
-11 -2 -7 4 -13 13 -13 8 0 12 5 9 10 -3 6 -1 10 4 10 6 0 11 -11 11 -25 0
-16 10 -31 28 -42 15 -10 34 -25 43 -35 9 -10 20 -14 24 -10 5 4 5 -1 1 -12
-5 -14 -2 -17 9 -12 8 3 16 0 16 -7 4 -38 19 -68 30 -61 5 3 6 10 3 16 -4 6
-3 8 3 5 5 -3 8 -19 5 -35 -5 -36 14 -76 33 -68 10 3 12 -2 9 -21 -3 -15 -7
-30 -10 -34 -2 -4 1 -11 7 -15 8 -5 9 -3 4 6 -5 9 -4 11 4 6 9 -6 9 -11 0 -22
-10 -12 -9 -17 1 -27 7 -7 10 -7 7 -1 -3 6 0 11 8 11 11 0 12 -4 4 -13 -13
-15 -2 -37 13 -28 7 4 7 0 0 -13 -7 -12 -7 -24 0 -36 7 -14 5 -24 -9 -39 -10
-12 -13 -18 -7 -15 7 4 14 0 18 -8 3 -8 1 -15 -4 -15 -6 0 -10 -5 -10 -11 0
-5 4 -8 9 -4 6 3 6 -7 1 -26 -8 -28 -7 -29 7 -17 14 12 15 11 5 -8 -9 -16 -8
-21 4 -21 7 0 14 7 14 16 0 14 2 14 9 1 6 -8 7 -18 4 -24 -3 -5 -1 -6 6 -2 6
4 8 13 4 19 -4 7 2 5 12 -3 17 -14 18 -13 12 4 -6 14 -4 17 9 12 11 -4 15 -2
11 7 -3 9 7 13 39 12 23 -1 42 1 41 4 -1 3 5 17 12 30 13 24 14 24 29 5 14
-18 14 -18 8 0 -4 13 -2 17 7 13 8 -3 14 1 14 9 0 7 -4 11 -8 8 -4 -2 -11 1
-15 8 -4 7 -4 10 1 6 4 -4 15 -2 23 5 10 8 13 8 9 1 -4 -7 0 -14 8 -17 9 -4
12 -1 8 9 -3 9 1 14 13 14 17 0 16 1 -2 15 -18 14 -17 14 10 5 16 -6 31 -8 34
-5 3 3 1 5 -5 5 -16 0 -24 28 -11 36 7 4 8 3 4 -4 -4 -7 -2 -12 3 -12 6 0 11
7 11 15 0 9 7 18 15 21 8 4 15 13 15 21 0 12 3 13 14 4 11 -9 16 -9 22 0 4 7
3 9 -3 6 -6 -4 -14 0 -17 9 -3 8 -2 12 4 9 6 -3 10 1 10 10 0 9 5 13 10 10 6
-3 10 1 10 10 0 10 -5 13 -12 9 -7 -4 -8 -3 -4 4 4 7 17 12 29 13 12 0 16 3 9
6 -10 4 -7 12 10 31 13 14 18 22 12 19 -16 -9 -25 18 -12 31 6 6 18 8 27 4 13
-5 13 -3 -2 12 -17 17 -17 20 -1 44 12 18 13 27 6 30 -7 2 -12 8 -12 13 0 6 6
7 13 3 7 -5 6 0 -3 11 -13 17 -13 18 1 13 13 -5 16 -2 12 13 -3 11 -10 16 -17
12 -6 -4 -5 1 3 11 13 15 13 19 0 27 -8 5 -9 9 -3 9 5 0 10 11 10 25 0 14 -4
25 -9 25 -4 0 -5 6 0 13 10 16 12 57 2 54 -4 -1 -7 2 -7 6 -1 5 -11 17 -23 28
-12 10 -18 19 -13 19 6 0 15 -5 22 -12 9 -9 12 -9 12 -1 0 7 -10 15 -21 18
-17 6 -19 9 -8 16 12 7 11 9 -1 9 -12 1 -12 3 3 14 14 11 15 15 4 19 -8 3 -20
0 -26 -6 -9 -9 -11 -8 -6 4 4 10 2 20 -3 23 -6 3 -8 15 -5 26 3 11 -2 27 -12
36 -9 9 -14 23 -10 32 4 12 3 12 -8 3 -12 -9 -13 -7 -9 14 3 20 0 25 -16 25
-25 0 -34 11 -23 29 6 9 11 10 15 2 4 -6 2 -11 -5 -11 -7 0 -10 -3 -6 -6 3 -3
11 -3 17 1 17 11 -8 35 -28 28 -15 -6 -15 -4 -4 9 10 13 10 18 1 24 -8 4 -9 3
-5 -4 10 -17 -9 -15 -23 2 -10 11 -9 16 5 24 14 8 15 10 0 15 -8 3 -18 2 -22
-4 -8 -14 -33 21 -27 38 5 12 -8 18 -29 14 -7 -1 -12 30 -9 51 0 4 -8 5 -19 3
-11 -2 -20 0 -20 4 0 4 -8 16 -18 27 -10 10 -21 27 -25 37 -3 9 -11 17 -17 17
-6 0 -8 -5 -5 -10 3 -5 1 -10 -4 -10 -15 0 -14 13 1 29 11 11 10 13 -5 8 -11
-4 -16 -3 -12 3 3 6 1 10 -4 10 -6 0 -11 5 -11 11 0 5 5 7 10 4 6 -3 10 -1 10
4 0 15 -13 14 -29 -1 -10 -11 -11 -10 -6 4 5 12 1 20 -9 24 -9 3 -16 12 -16
19 0 9 -8 12 -22 10 -21 -4 -21 -3 -6 9 10 7 15 16 11 19 -3 4 -12 2 -19 -4
-10 -8 -12 -6 -9 10 2 12 -1 21 -7 21 -5 0 -7 7 -4 16 4 10 2 13 -6 8 -7 -5
-9 -2 -6 8 4 8 0 15 -8 15 -7 0 -11 -4 -8 -9 3 -4 0 -8 -7 -8 -7 0 -9 10 -7
25 4 17 1 25 -8 25 -8 0 -14 5 -14 10 0 6 -5 10 -11 10 -5 0 -7 -5 -3 -12 5
-7 3 -8 -6 -3 -10 6 -9 11 5 22 18 12 18 13 -2 13 -20 0 -33 18 -33 43 0 7 4
6 10 -3 5 -8 10 -10 10 -4 0 6 -13 23 -30 37 -16 15 -30 22 -30 15 0 -6 -3 -8
-6 -5 -4 4 -1 14 7 24 9 11 10 14 2 9 -9 -5 -13 0 -13 13 0 12 -4 21 -9 21 -5
0 -16 11 -25 24 -14 23 -14 26 2 42 16 17 16 18 -1 11 -12 -4 -20 -1 -24 11
-4 9 -11 20 -17 24 -6 4 -11 15 -11 25 0 10 -5 17 -11 16 -7 -1 -10 6 -7 17 3
11 1 20 -4 20 -5 0 -10 10 -10 22 -2 16 0 19 6 9 5 -8 11 -9 15 -3 3 5 -1 13
-10 16 -9 3 -14 15 -13 28 2 13 -1 29 -5 37 -6 9 -5 12 1 8 5 -3 10 0 10 8 0
11 -5 12 -21 4 -16 -8 -14 -4 6 15 26 23 27 25 8 31 -18 6 -19 8 -5 22 12 12
13 18 4 29 -6 8 -7 14 -2 14 6 0 8 12 5 26 -4 21 -2 25 9 19 11 -6 12 -5 2 6
-18 19 -16 32 3 25 14 -5 15 -4 5 8 -9 11 -8 15 5 20 9 4 14 13 10 21 -3 10 1
15 12 15 10 0 13 3 7 8 -5 4 -11 13 -13 21 -3 12 0 12 12 2 12 -10 14 -9 9 11
-4 18 -3 20 6 8 9 -13 11 -12 12 5 1 11 1 23 0 27 0 5 2 7 7 7 20 -3 32 3 32
17 0 8 5 12 10 9 6 -4 7 -11 4 -17 -4 -7 -2 -8 5 -4 6 4 8 12 5 18 -5 7 0 9
14 6 14 -4 30 1 45 14 l22 19 -27 -17 c-17 -10 -28 -12 -28 -5 0 6 5 11 12 11
6 0 19 7 29 16 13 12 19 12 25 3 5 -8 3 -10 -6 -4 -9 5 -11 4 -6 -4 6 -9 11
-9 22 0 11 9 14 8 14 -2 0 -12 2 -12 9 0 7 10 10 11 16 1 6 -10 11 -9 22 5 8
12 13 14 13 6 0 -8 6 -11 16 -7 9 4 23 1 30 -5 17 -14 18 2 2 21 -11 12 -10
12 4 2 9 -7 18 -9 20 -5 3 4 3 2 1 -6 -2 -8 2 -11 12 -8 8 4 17 2 21 -4 4 -6
13 -4 25 7 14 13 18 14 14 3 -4 -11 7 -14 57 -13 35 1 63 3 63 4 0 1 8 3 18 5
14 3 16 0 7 -10 -9 -11 -4 -12 27 -5 41 10 57 5 49 -16 -3 -8 -1 -14 4 -14 6
0 10 10 11 23 l0 22 9 -21 c13 -33 34 -42 26 -13 -3 13 -3 18 0 12 3 -7 12
-13 20 -13 8 0 14 -4 14 -10 0 -5 5 -10 11 -10 5 0 7 5 4 10 -3 6 -2 10 2 10
10 0 38 -42 35 -52 -1 -5 3 -8 8 -8 6 0 10 4 10 9 0 5 11 8 25 7 14 0 25 -5
25 -9 0 -5 4 -6 9 -3 5 3 15 -2 22 -12 13 -15 12 -16 -3 -4 -12 10 -18 10 -24
1 -4 -7 -3 -9 4 -5 6 3 14 1 17 -4 5 -8 14 -5 28 7 12 10 19 14 15 9 -4 -5 4
-19 17 -32 14 -13 25 -29 25 -36 0 -9 3 -9 12 0 7 7 17 12 22 12 6 0 4 -5 -4
-10 -10 -6 -11 -10 -2 -10 6 0 12 -5 12 -11 0 -5 -6 -7 -12 -3 -8 4 -10 3 -5
-2 11 -12 30 -12 38 -1 3 5 9 1 12 -8 4 -9 3 -13 -3 -10 -17 10 -11 -4 10 -25
26 -26 29 -25 23 3 -4 21 -4 21 11 -3 9 -14 19 -33 22 -42 8 -21 15 -22 34 -5
12 10 12 9 2 -4 -9 -12 -9 -19 1 -30 10 -12 10 -12 -3 -1 -7 6 -19 12 -24 12
-6 0 5 -11 24 -24 25 -17 37 -20 43 -12 5 6 5 0 2 -13 -6 -19 -4 -23 8 -18 16
6 18 -16 2 -30 -4 -4 -5 -2 0 6 6 10 4 12 -4 7 -14 -9 -6 -21 12 -21 7 0 11
-10 11 -22 -1 -13 3 -20 7 -17 5 3 7 10 4 15 -3 5 0 6 8 3 7 -2 14 -11 15 -19
1 -8 3 -22 4 -30 1 -8 7 -15 14 -15 6 0 15 -7 18 -16 5 -14 4 -15 -9 -4 -13
11 -14 10 -9 -4 3 -9 10 -16 15 -16 5 0 9 -7 9 -16 0 -8 4 -12 10 -9 6 3 10 1
10 -5 0 -6 5 -8 12 -4 7 4 8 3 4 -5 -4 -6 -11 -9 -16 -6 -7 4 -7 -17 0 -35 1
-3 2 -9 1 -14 -1 -5 4 -6 12 -3 8 3 20 1 28 -5 11 -8 10 -9 -3 -4 -10 3 -18 1
-18 -4 0 -6 8 -10 17 -10 13 0 14 -3 5 -12 -15 -15 -15 -28 -1 -28 5 0 7 5 4
10 -3 6 -1 10 4 10 15 0 14 -13 -1 -29 -11 -11 -10 -12 1 -6 11 6 13 3 9 -13
-4 -15 -2 -19 9 -15 12 5 14 1 8 -18 -7 -20 -5 -22 6 -12 11 9 14 7 14 -12 0
-18 -3 -21 -13 -13 -9 8 -11 7 -6 -5 3 -8 12 -18 19 -21 8 -3 11 -13 8 -26 -4
-14 1 -26 13 -35 18 -14 18 -14 -1 -15 -16 0 -17 -2 -5 -9 8 -6 17 -8 20 -6 4
2 7 -2 7 -10 0 -8 -4 -12 -7 -10 -4 3 -7 -7 -7 -20 0 -14 4 -28 8 -31 5 -3 8
0 7 7 -2 6 3 13 10 15 7 1 8 0 2 -3 -8 -3 -7 -9 1 -19 6 -8 8 -14 4 -14 -4 0
-1 -8 6 -17 8 -9 9 -14 3 -10 -15 9 -9 -80 8 -101 11 -13 11 -15 -2 -7 -13 8
-13 7 -1 -8 7 -9 9 -17 4 -17 -5 0 -9 -13 -9 -29 0 -17 2 -29 5 -27 3 2 14 -5
23 -16 10 -10 13 -18 7 -18 -5 0 -7 -5 -3 -12 4 -6 3 -8 -3 -5 -5 3 -10 -1
-10 -9 0 -8 5 -13 12 -11 6 3 12 -4 12 -14 1 -10 -3 -19 -8 -19 -6 0 -7 5 -3
12 5 7 3 8 -6 3 -10 -6 -9 -11 5 -22 11 -7 14 -13 9 -13 -12 0 -12 -36 1 -47
4 -5 5 -2 0 6 -6 10 -4 12 5 6 10 -6 10 -11 -3 -20 -18 -13 -24 -31 -8 -20 15
9 24 -16 11 -28 -10 -9 -11 -9 -5 2 6 10 4 12 -5 6 -10 -6 -9 -11 5 -22 11 -7
14 -13 8 -13 -7 0 -10 -14 -9 -32 2 -18 -1 -38 -5 -44 -5 -7 -3 -11 6 -11 8 0
12 3 10 7 -2 4 3 7 11 7 10 0 8 -7 -8 -25 -18 -20 -19 -24 -5 -19 9 4 17 2 17
-3 0 -6 -8 -10 -17 -10 -11 0 -14 -3 -7 -8 16 -11 25 -42 11 -36 -9 3 -13 -7
-12 -33 0 -40 11 -67 24 -59 4 3 8 -1 8 -9 0 -8 -5 -11 -11 -7 -17 10 -37 11
-30 1 3 -5 10 -7 15 -4 5 4 9 2 9 -4 0 -5 -4 -12 -9 -16 -6 -3 -9 -14 -8 -25
1 -10 5 -17 9 -14 4 3 5 12 2 22 -5 14 -4 15 5 2 7 -11 6 -21 -5 -39 -9 -13
-12 -21 -7 -18 5 3 15 -4 23 -16 12 -20 11 -21 -2 -9 -13 10 -17 10 -22 -3 -3
-9 -2 -14 3 -11 5 3 11 -1 14 -9 4 -9 1 -12 -9 -8 -7 3 -14 0 -14 -6 0 -6 3
-11 8 -11 4 0 13 -10 21 -22 13 -22 13 -22 -5 -6 -19 17 -20 16 -19 -15 1 -18
-3 -38 -9 -46 -8 -11 -8 -13 0 -8 7 4 14 0 18 -8 3 -8 1 -17 -4 -20 -15 -9
-12 -27 3 -19 10 6 10 4 0 -7 -7 -7 -13 -17 -13 -22 0 -4 6 -5 13 -1 10 6 10
4 0 -7 -7 -7 -13 -17 -13 -22 0 -4 6 -5 13 -2 6 4 4 0 -5 -8 -13 -10 -15 -16
-6 -25 7 -7 8 -12 2 -12 -5 0 -9 -11 -9 -24 0 -13 3 -22 8 -19 15 9 7 -10 -10
-24 -10 -8 -13 -12 -7 -9 7 3 15 -1 18 -10 3 -8 2 -12 -4 -9 -17 10 -11 -12 8
-31 16 -17 16 -17 0 -11 -10 3 -20 2 -23 -3 -4 -6 -1 -10 5 -10 6 0 8 -5 5
-10 -5 -8 -12 -7 -23 2 -15 11 -15 11 -5 -3 7 -9 9 -20 5 -24 -4 -5 -1 -5 6
-1 7 4 13 2 13 -6 1 -7 3 -23 4 -34 2 -17 -2 -20 -19 -16 -20 4 -20 4 -2 -10
15 -12 16 -17 6 -23 -9 -6 -11 -4 -5 6 7 12 5 12 -6 1 -12 -11 -12 -14 1 -22
8 -5 10 -10 5 -10 -6 0 -11 -9 -12 -20 -1 -13 3 -18 10 -14 7 3 4 -1 -6 -9
-20 -17 -22 -28 -4 -21 8 3 14 -2 14 -11 0 -9 -5 -14 -11 -12 -6 3 -11 -8 -12
-23 -1 -22 3 -27 15 -23 13 4 13 3 2 -5 -8 -6 -11 -17 -8 -26 3 -8 2 -18 -4
-21 -5 -4 -7 -10 -4 -15 3 -5 1 -11 -4 -14 -11 -7 -9 13 2 32 5 7 4 12 -2 12
-6 0 -11 -5 -11 -11 0 -5 -6 -7 -12 -3 -10 6 -10 5 -1 -7 9 -11 9 -19 2 -26
-8 -8 -7 -13 2 -18 8 -6 10 -4 4 6 -5 8 -4 10 0 6 17 -15 13 -36 -6 -32 -11 2
-17 0 -14 -6 4 -5 14 -9 23 -9 15 -1 15 -2 -2 -15 -12 -9 -15 -15 -7 -15 11 0
11 -3 0 -17 -8 -9 -9 -14 -2 -10 6 4 13 4 16 0 2 -5 2 -2 0 6 -2 9 2 11 14 7
10 -4 14 -4 11 0 -4 3 0 13 8 21 8 8 12 18 9 22 -2 5 5 17 17 27 12 11 18 13
14 7 -4 -8 -1 -13 7 -13 10 0 14 8 11 23 -2 12 -2 16 2 9 9 -18 27 -15 20 4
-5 13 -2 15 16 11 22 -6 22 -5 4 8 -10 8 -23 12 -29 8 -6 -3 -7 -1 -4 5 4 5
17 8 29 4 16 -4 19 -2 13 8 -5 8 -4 11 2 7 16 -10 34 18 27 39 -6 17 -5 17 9
-1 16 -20 16 -20 12 3 -3 19 -2 22 10 12 10 -8 15 -8 21 1 4 8 3 9 -4 5 -7 -4
-12 -3 -12 1 0 5 12 14 28 21 26 11 26 11 2 7 -14 -3 -19 -2 -12 1 6 3 10 9 8
13 -3 4 4 7 16 7 12 -1 23 6 26 14 5 13 3 13 -14 0 -18 -14 -18 -14 -5 3 8 10
20 16 27 13 17 -7 28 10 13 20 -8 5 -9 3 -4 -6 5 -9 4 -11 -4 -6 -6 4 -9 12
-5 17 3 5 9 7 14 4 5 -3 15 1 23 9 8 8 18 12 21 8 4 -3 4 2 0 13 -6 14 -4 17
9 12 12 -4 14 -2 10 10 -4 11 -2 14 5 9 7 -4 10 1 7 15 -4 18 -2 19 12 7 12
-9 15 -9 9 0 -4 6 -2 12 3 12 6 0 11 9 11 20 0 11 5 20 11 20 5 0 7 6 3 13 -4
6 3 3 17 -8 l24 -20 -15 20 c-8 11 -19 23 -25 28 -5 4 1 6 15 5 19 -2 24 1 22
14 -2 12 2 16 11 12 8 -3 20 3 28 12 9 12 10 15 2 10 -7 -4 -13 -2 -13 3 0 6
5 11 11 11 5 0 7 5 3 12 -5 8 -2 9 10 5 13 -5 15 -2 12 18 -3 14 -2 24 2 24
30 -5 42 3 42 27 0 14 4 23 9 20 5 -3 12 5 15 18 5 19 11 23 28 18 22 -5 22
-5 6 12 -24 23 -23 26 9 20 24 -5 25 -3 12 12 -8 10 -9 15 -3 11 7 -4 15 0 18
9 4 10 2 13 -7 8 -8 -5 -7 -2 2 9 18 22 32 22 24 0 -3 -10 -3 -15 1 -12 4 4 9
16 11 28 3 15 0 19 -8 15 -7 -4 2 6 18 22 17 16 33 28 36 27 4 -1 5 11 4 27
-2 19 2 27 10 24 7 -3 16 -1 20 5 3 6 1 11 -4 11 -6 0 -11 5 -11 11 0 5 5 7
12 3 8 -5 9 0 6 14 -7 26 -4 27 16 7 13 -14 15 -13 15 2 0 54 21 90 43 77 7
-4 4 3 -7 16 -11 13 -15 21 -10 18 14 -8 32 14 29 35 -2 15 0 16 12 6 10 -8
14 -8 15 0 3 21 4 26 13 40 6 9 5 12 -1 8 -6 -4 -14 0 -17 9 -4 11 -1 14 12
10 11 -4 19 -1 19 6 0 7 4 22 9 32 5 14 4 17 -5 11 -8 -4 -6 3 4 18 9 15 14
31 10 38 -5 8 -1 8 15 -1 12 -7 20 -7 16 -2 -3 6 -3 12 1 15 5 2 3 2 -4 1 -6
-2 -17 5 -25 14 -12 15 -11 16 5 3 12 -9 17 -10 17 -2 0 7 4 10 8 7 5 -3 9 1
9 9 0 8 -5 11 -11 8 -6 -4 -5 0 2 9 10 13 10 17 0 21 -8 3 -6 6 5 6 15 1 16 4
6 22 -7 13 -7 19 -1 15 6 -3 13 -2 17 4 4 6 11 7 17 4 7 -4 8 -2 4 5 -4 6 -12
9 -17 6 -5 -3 -6 1 -3 9 3 9 9 14 13 12 3 -2 6 6 6 19 0 13 -2 22 -5 20 -4 -2
-6 7 -6 20 0 13 4 21 8 19 5 -3 6 -10 3 -15 -3 -5 1 -6 10 -2 13 4 14 8 4 14
-10 6 -10 11 0 23 8 9 9 16 3 16 -6 0 -12 -5 -14 -12 -3 -8 -7 -6 -11 4 -3 10
1 22 11 30 13 11 14 11 7 -1 -5 -10 -4 -12 4 -7 8 5 9 12 3 19 -5 7 -8 23 -7
37 1 14 -3 32 -9 40 -10 13 -9 13 6 1 10 -7 16 -17 13 -21 -3 -5 0 -12 6 -16
8 -4 9 -3 5 4 -4 7 -1 12 6 12 9 0 9 3 -2 10 -8 5 -12 10 -8 10 4 0 3 12 -2
26 -8 21 -8 25 3 21 8 -3 14 1 14 9 0 9 -6 13 -14 10 -9 -4 -11 -1 -7 5 4 6 1
15 -6 19 -8 5 -7 9 5 13 9 4 13 3 10 -3 -3 -6 -1 -10 4 -10 14 0 14 17 1 25
-8 5 -7 12 2 23 11 13 10 15 -4 9 -10 -3 -20 -1 -24 5 -4 7 -3 8 4 4 7 -4 12
-2 12 4 0 6 4 9 8 6 4 -2 8 11 8 29 0 18 -4 31 -8 29 -11 -7 -10 14 1 54 6 21
6 32 0 32 -6 0 -8 9 -4 19 3 11 0 23 -6 27 -9 5 -7 10 5 19 15 11 15 13 1 19
-11 4 -14 2 -9 -7 5 -9 4 -9 -6 0 -14 13 -22 76 -9 67 4 -2 10 0 14 6 3 5 -2
10 -11 10 -16 0 -15 2 2 22 10 12 13 18 7 14 -9 -5 -13 1 -13 18 0 14 -5 26
-11 26 -8 0 -8 4 1 15 10 11 9 17 -3 29 -8 8 -18 12 -22 8 -5 -4 -5 -1 -1 6 4
7 11 10 16 7 5 -3 11 -1 15 5 3 5 -1 10 -9 10 -9 0 -16 5 -16 11 0 5 5 7 12 3
7 -4 8 -3 4 5 -4 6 -12 9 -17 6 -5 -4 -9 0 -9 7 0 9 -3 9 -10 -2 -5 -8 -10
-10 -10 -5 0 6 5 17 10 25 6 10 10 11 10 3 0 -7 5 -13 12 -13 9 0 9 3 0 12 -7
7 -12 18 -12 26 0 7 -6 20 -14 28 -8 7 -12 23 -9 34 3 11 0 20 -6 20 -6 0 -10
6 -8 13 1 6 -3 11 -10 10 -8 -2 -9 6 -3 27 6 22 5 30 -7 34 -8 3 -20 3 -25 -1
-7 -3 -8 -1 -4 6 4 7 17 9 29 6 21 -6 21 -6 2 6 -29 17 -35 31 -23 46 8 10 7
12 -3 8 -10 -4 -15 4 -16 27 -4 51 -6 58 -15 52 -5 -3 -5 -10 -2 -16 4 -6 2
-8 -4 -5 -5 4 -8 17 -5 30 4 18 3 19 -6 7 -7 -9 -11 -10 -11 -3 0 6 5 15 10
18 8 5 7 11 0 20 -7 8 -8 20 -4 27 6 10 3 9 -9 -1 -12 -9 -17 -10 -17 -2 0 7
-6 9 -12 6 -7 -4 -4 1 6 9 19 15 11 22 -19 16 -5 -1 -1 9 10 21 11 12 16 20
10 17 -5 -3 -20 -2 -33 3 -19 7 -21 12 -13 28 8 15 7 20 -5 25 -8 3 -13 2 -10
-2 2 -4 1 -14 -4 -22 -7 -10 -8 -3 -6 23 1 21 -2 41 -7 44 -6 3 -7 1 -3 -5 4
-7 2 -12 -3 -12 -6 0 -11 9 -11 21 0 11 -4 17 -10 14 -5 -3 -10 -1 -10 5 0 6
-5 8 -12 4 -10 -6 -9 -3 0 8 11 14 10 19 -13 34 -14 9 -24 22 -21 29 2 6 -2
12 -10 12 -7 0 -11 -4 -8 -9 3 -4 0 -8 -5 -8 -6 0 -11 9 -11 19 0 11 -5 23
-10 26 -6 4 -8 10 -5 14 2 5 -7 7 -20 5 -17 -1 -23 2 -18 9 4 7 8 18 10 26 1
10 -1 11 -10 2 -18 -18 -29 -13 -22 12 7 22 7 22 -8 2 l-16 -20 2 20 c2 15 -3
19 -21 18 -19 -2 -21 -1 -10 11 7 8 17 11 22 8 5 -3 6 0 2 6 -4 6 -13 9 -21 5
-11 -4 -13 -1 -8 13 6 17 5 17 -10 5 -15 -12 -17 -11 -17 8 0 19 -10 26 -32
22 -5 0 -8 9 -8 22 0 18 2 19 10 7 6 -9 10 -10 10 -3 0 20 -18 24 -29 6 -9
-16 -10 -16 -11 5 0 12 -5 22 -11 22 -5 0 -7 5 -4 10 4 6 -6 10 -22 10 -22 0
-25 2 -13 10 11 7 11 10 2 10 -7 0 -10 5 -7 10 3 6 -1 10 -10 10 -9 0 -13 5
-10 10 3 6 -4 10 -15 10 -13 0 -24 8 -27 20 -3 11 -12 20 -20 20 -8 0 -12 4
-8 9 3 5 -4 12 -15 16 -11 3 -20 11 -20 16 0 6 4 7 10 4 6 -3 7 1 3 10 -4 13
-8 14 -14 4 -10 -17 -42 8 -35 28 3 8 -2 13 -13 13 -10 0 -25 8 -32 17 -8 10
-9 14 -2 10 6 -4 15 -2 19 4 4 7 3 9 -4 5 -14 -8 -44 22 -36 36 4 7 2 8 -4 4
-6 -4 -9 -14 -6 -24 5 -15 5 -15 -6 1 -6 9 -8 22 -4 29 5 7 2 9 -9 5 -18 -7
-42 17 -32 33 9 14 -8 13 -25 -2 -8 -8 -6 0 4 17 10 17 13 24 5 18 -15 -15
-33 -17 -25 -4 3 5 -1 12 -10 15 -8 3 -12 11 -8 17 4 8 1 8 -13 1 -19 -11 -22
-6 -26 51 -1 9 -5 17 -10 17 -5 0 -7 -9 -4 -21 5 -18 3 -17 -19 6 -13 14 -24
30 -24 36 0 8 -8 11 -26 8 -12 -1 -24 26 -18 44 3 9 0 17 -6 17 -6 0 -8 -4 -5
-10 12 -19 -9 -10 -37 17 -15 15 -28 33 -28 41 0 9 -7 12 -22 8 -13 -3 -17 -3
-10 0 17 8 15 24 -4 45 -13 14 -21 16 -35 8 -15 -8 -17 -6 -12 8 4 10 11 21
17 25 6 4 1 6 -11 5 -12 0 -19 -5 -17 -9 3 -4 -3 -5 -12 -1 -15 6 -15 7 2 21
15 12 15 13 2 9 -9 -3 -19 0 -22 9 -3 8 -12 14 -21 14 -9 0 -15 9 -15 21 0 18
-2 19 -15 9 -13 -11 -14 -10 -9 4 4 10 1 16 -9 16 -8 0 -18 7 -21 16 -3 8 -12
12 -18 9 -7 -4 -4 1 7 11 17 14 17 16 3 11 -11 -4 -18 -1 -18 6 0 8 -4 6 -10
-3 -8 -12 -10 -11 -10 8 0 14 -6 22 -17 22 -16 0 -16 2 -3 11 12 9 11 10 -6 6
-17 -4 -20 0 -19 24 1 15 -2 26 -7 23 -5 -4 -7 -13 -4 -23 5 -13 3 -13 -8 2
-8 10 -17 18 -20 18 -17 -2 -17 0 -5 15 12 15 11 16 -9 10 -16 -5 -22 -4 -20
6 2 7 -3 12 -9 10 -7 -1 -13 5 -13 14 0 8 5 12 10 9 6 -3 10 -1 10 4 0 15 -27
14 -33 -1 -3 -7 -6 -3 -6 10 -1 12 -6 22 -12 22 -5 0 -7 6 -3 13 5 7 2 7 -10
-2 -15 -12 -17 -12 -14 0 2 8 -2 13 -8 12 -7 -1 -15 9 -18 22 -5 18 -11 23
-24 18 -14 -6 -15 -4 -4 9 14 17 0 34 -18 23 -5 -3 -10 -1 -10 5 0 6 -6 18
-12 25 -7 8 -19 22 -27 30 -7 9 -20 14 -28 11 -8 -3 -11 -2 -8 3 3 5 1 12 -5
16 -6 4 -8 11 -5 16 4 5 -2 6 -11 2 -13 -5 -16 -2 -11 9 4 12 0 15 -16 11 -18
-4 -19 -3 -7 6 11 8 12 11 2 11 -8 0 -10 5 -6 13 5 8 2 7 -9 -2 -15 -12 -17
-12 -11 3 4 9 2 16 -4 14 -5 -2 -21 10 -36 25 -27 30 -34 43 -14 31 7 -4 8 -3
4 5 -6 9 -11 9 -24 -1 -12 -10 -14 -10 -8 0 4 7 1 12 -9 12 -9 0 -14 3 -12 8
3 4 -2 14 -11 22 -9 8 -17 13 -18 10 -1 -3 -6 -1 -11 4 -5 5 -3 6 5 2 6 -4 12
-2 12 3 0 6 -10 11 -21 11 -16 0 -20 5 -16 20 4 16 1 19 -17 16 -17 -3 -22 1
-24 17 0 12 -6 23 -12 25 -5 2 -7 9 -3 15 4 7 -1 6 -11 -2 -15 -12 -17 -12
-14 0 2 8 -3 13 -9 12 -7 -2 -13 4 -13 13 0 9 -5 12 -12 8 -10 -6 -10 -4 0 8
11 14 10 17 -8 23 -11 3 -18 11 -15 16 4 5 1 9 -4 9 -6 0 -11 -4 -11 -10 0 -5
-4 -10 -9 -10 -5 0 -7 9 -4 20 3 12 0 20 -6 20 -7 0 -9 5 -5 13 6 9 4 9 -8 -1
-13 -10 -17 -10 -22 3 -4 11 -2 14 6 9 6 -4 8 -3 4 4 -3 5 0 13 6 16 7 3 0 2
-16 -1 -25 -5 -28 -3 -23 12 6 13 3 16 -8 11 -9 -3 -14 -2 -11 2 2 4 1 14 -5
22 -7 13 -9 12 -9 -2 0 -10 -4 -18 -8 -18 -10 0 -9 31 2 48 4 7 5 16 2 19 -3
4 -6 1 -6 -5 0 -7 -9 -11 -20 -9 -23 4 -39 17 -20 17 10 0 10 3 -1 16 -7 8
-21 13 -32 10 -10 -2 -16 -2 -13 1 3 4 0 13 -7 22 -11 14 -10 15 7 1 19 -15
19 -14 1 13 -10 15 -27 32 -39 38 -18 9 -17 7 3 -9 19 -15 21 -21 10 -27 -8
-5 -11 -5 -8 -1 4 4 -4 18 -18 32 -13 13 -21 29 -18 34 3 6 1 10 -5 10 -6 0
-9 4 -6 9 4 5 -5 8 -19 6 -20 -2 -23 0 -14 11 9 11 8 14 0 14 -7 0 -10 4 -7 9
3 5 -2 15 -11 22 -11 10 -14 10 -9 2 5 -9 2 -11 -9 -7 -11 5 -13 10 -5 19 8
10 7 15 -2 21 -12 8 -17 10 -36 13 -8 1 -10 7 -14 49 -1 10 -7 19 -14 19 -6 0
-9 -9 -6 -21 3 -12 2 -18 -1 -15 -4 3 -8 14 -10 25 -1 10 -7 25 -11 33 -6 10
-5 12 2 7 8 -5 10 -2 6 8 -7 19 -16 20 -33 4 -10 -11 -11 -10 -6 5 4 9 12 17
19 17 6 0 5 4 -4 9 -8 6 -18 7 -22 5 -13 -8 -9 4 7 19 13 13 13 16 -1 21 -10
4 -13 2 -8 -6 5 -7 3 -8 -5 -4 -7 5 -10 14 -7 22 3 7 0 16 -6 20 -7 5 -8 2 -3
-6 6 -9 4 -11 -4 -5 -9 5 -9 11 -2 18 7 7 3 16 -12 29 l-22 19 25 -12 c24 -11
24 -11 8 7 -11 13 -14 24 -8 35 6 11 5 16 -5 16 -8 0 -14 -3 -13 -6 2 -20 -4
-31 -13 -25 -8 4 -7 9 2 15 8 5 10 9 6 9 -4 0 -3 9 3 20 9 16 8 22 -5 27 -13
5 -14 7 -3 14 11 7 11 9 -1 9 -11 0 -11 3 0 17 10 11 10 14 2 9 -7 -4 -13 -3
-13 1 0 5 6 15 13 22 10 11 10 13 0 7 -9 -5 -13 0 -13 14 0 13 4 19 11 14 6
-3 3 6 -7 22 -11 15 -14 25 -8 21 7 -4 15 0 18 9 9 24 7 31 -4 14 -14 -21 -13
5 0 31 8 14 7 19 -1 19 -8 0 -8 5 2 16 10 12 10 17 1 23 -7 4 -10 15 -6 24 3
9 10 15 14 12 5 -3 11 -1 14 4 4 5 1 13 -5 17 -8 5 -9 3 -4 -7 8 -12 6 -12 -8
0 -20 16 -22 22 -4 19 6 -2 11 3 10 10 -2 6 2 12 8 12 5 0 8 4 4 9 -3 5 0 13
6 17 7 4 9 3 5 -4 -3 -6 -2 -13 3 -16 10 -7 9 13 -2 31 -4 6 -2 15 4 18 6 4 8
19 5 34 l-6 26 13 -24 c11 -18 15 -20 20 -9 9 24 -5 33 -50 34 -32 0 -40 -3
-32 -12 8 -9 5 -11 -10 -7 -12 3 -18 9 -15 14 6 10 0 12 -9 3z m-22 -34 c-3
-5 -12 -10 -18 -10 -7 0 -6 4 3 10 19 12 23 12 15 0z m-249 -92 c4 -7 3 -8 -4
-4 -7 4 -12 2 -12 -5 0 -7 -3 -10 -6 -6 -6 5 3 27 11 27 2 0 7 -5 11 -12z
m-696 -688 c0 -5 -5 -10 -11 -10 -5 0 -7 5 -4 10 3 6 8 10 11 10 2 0 4 -4 4
-10z m1204 -28 c3 -5 -1 -9 -9 -9 -8 0 -12 4 -9 9 3 4 7 8 9 8 2 0 6 -4 9 -8z
m-1347 -824 c0 -13 -1 -17 -4 -10 -3 6 -10 9 -16 5 -7 -4 -6 1 2 10 17 21 17
21 18 -5z m2152 -32 c-3 -3 -11 5 -18 17 -13 21 -12 21 5 5 10 -10 16 -20 13
-22z m-2106 -181 c4 -8 1 -17 -5 -21 -7 -4 -8 -3 -4 4 4 7 2 12 -4 12 -6 0 -8
5 -5 10 8 14 12 13 18 -5z m2638 -337 c11 -21 11 -22 -4 -9 -10 7 -17 17 -17
22 0 15 9 10 21 -13z m-2261 -512 c0 -3 -4 -8 -10 -11 -5 -3 -10 -1 -10 4 0 6
5 11 10 11 6 0 10 -2 10 -4z m152 -233 c-10 -4 -10 -8 0 -21 12 -15 11 -16 -4
-3 -19 14 -15 32 5 30 8 0 8 -2 -1 -6z m-627 -162 c3 -5 2 -12 -3 -15 -5 -3
-9 1 -9 9 0 17 3 19 12 6z m55 -41 c6 -11 8 -20 6 -20 -3 0 -10 9 -16 20 -6
11 -8 20 -6 20 3 0 10 -9 16 -20z m3630 -14 c0 -11 -30 1 -39 16 -11 18 -11
18 14 2 14 -9 25 -17 25 -18z m-3994 -181 c-3 -8 2 -19 12 -24 9 -6 13 -10 7
-11 -18 0 -32 15 -32 33 0 9 5 17 10 17 5 0 7 -7 3 -15z m1004 -15 c0 -5 -5
-10 -11 -10 -5 0 -7 5 -4 10 3 6 8 10 11 10 2 0 4 -4 4 -10z m1117 -12 c-3 -8
-6 -5 -6 6 -1 11 2 17 5 13 3 -3 4 -12 1 -19z m-1106 -11 c-10 -9 -11 -8 -5 6
3 10 9 15 12 12 3 -3 0 -11 -7 -18z m1646 -52 c0 -8 -4 -12 -9 -9 -5 3 -6 10
-3 15 9 13 12 11 12 -6z m-2626 -78 c-10 -9 -11 -8 -5 6 3 10 9 15 12 12 3 -3
0 -11 -7 -18z m1789 -181 c0 -3 -4 -8 -10 -11 -5 -3 -10 -1 -10 4 0 6 5 11 10
11 6 0 10 -2 10 -4z m1370 -288 c0 -4 -4 -8 -9 -8 -6 0 -12 4 -15 8 -3 5 1 9
9 9 8 0 15 -4 15 -9z m1127 -133 c0 -8 -4 -12 -9 -9 -5 3 -6 10 -3 15 9 13 12
11 12 -6z m23 -65 c0 -5 -2 -10 -4 -10 -3 0 -8 5 -11 10 -3 6 -1 10 4 10 6 0
11 -4 11 -10z m-2356 -8 c2 -4 0 -14 -6 -22 -8 -12 -9 -12 -5 2 3 9 1 19 -6
22 -9 3 -9 5 0 5 6 1 14 -3 17 -7z m2360 -98 c3 -8 2 -12 -4 -9 -6 3 -10 10
-10 16 0 14 7 11 14 -7z m-3707 -46 c-3 -8 -6 -5 -6 6 -1 11 2 17 5 13 3 -3 4
-12 1 -19z m1453 -28 c0 -5 -2 -10 -4 -10 -3 0 -8 5 -11 10 -3 6 -1 10 4 10 6
0 11 -4 11 -10z m-1166 -196 c3 -8 2 -12 -4 -9 -6 3 -10 10 -10 16 0 14 7 11
14 -7z m2426 5 c-11 -8 -12 -12 -2 -16 6 -2 12 -10 12 -16 0 -6 -7 -4 -16 5
-17 17 -12 38 9 38 7 0 6 -4 -3 -11z m-2286 -109 c-6 -6 -10 -3 -10 10 0 13 4
16 10 10 7 -7 7 -13 0 -20z m1266 26 c0 -3 -4 -8 -10 -11 -5 -3 -10 -1 -10 4
0 6 5 11 10 11 6 0 10 -2 10 -4z m1065 -435 c-3 -22 -24 -26 -22 -3 0 10 6 19
13 19 6 0 11 -7 9 -16z m-789 -65 c2 -14 0 -15 -12 -5 -17 14 -19 32 -2 27 6
-2 12 -12 14 -22z m-666 -101 c0 -12 -19 -12 -23 0 -4 9 -1 12 9 8 7 -3 14 -7
14 -8z m2100 -39 c0 -3 -4 -8 -10 -11 -5 -3 -10 -1 -10 4 0 6 5 11 10 11 6 0
10 -2 10 -4z m-1945 -185 c-6 -5 -25 10 -25 20 0 5 6 4 14 -3 8 -7 12 -15 11
-17z m1765 -61 c0 -5 -2 -10 -4 -10 -3 0 -8 5 -11 10 -3 6 -1 10 4 10 6 0 11
-4 11 -10z m-160 -200 c0 -5 -5 -10 -11 -10 -5 0 -7 5 -4 10 3 6 8 10 11 10 2
0 4 -4 4 -10z m-1380 -34 c0 -3 -4 -8 -10 -11 -5 -3 -10 -1 -10 4 0 6 5 11 10
11 6 0 10 -2 10 -4z m1005 -376 c-3 -5 -12 -10 -18 -10 -7 0 -6 4 3 10 19 12
23 12 15 0z"/>
<path d="M6155 7054 c-16 -8 -22 -12 -12 -9 10 3 16 1 12 -4 -3 -5 1 -12 7
-15 7 -3 4 -4 -7 -1 -11 2 -27 0 -35 -5 -10 -6 -11 -10 -2 -10 6 0 12 -5 12
-11 0 -5 -4 -8 -8 -5 -5 3 -9 -1 -9 -9 0 -8 5 -12 10 -8 5 3 4 -4 -2 -15 -8
-15 -8 -22 2 -25 9 -4 9 -6 -1 -6 -8 -1 -10 -6 -5 -13 11 -19 13 -39 2 -32 -5
3 -9 1 -9 -5 0 -5 5 -13 10 -16 7 -4 7 -12 0 -25 -7 -13 -6 -20 3 -23 9 -4 9
-6 0 -6 -7 -1 -13 -6 -13 -12 0 -5 6 -7 13 -3 8 5 8 2 -2 -9 -11 -14 -11 -17
0 -17 10 0 10 -3 1 -12 -14 -14 -16 -32 -4 -24 5 3 9 -1 9 -9 0 -8 -4 -12 -9
-9 -10 6 -11 -10 -1 -20 10 -10 11 -66 1 -60 -10 6 -11 -10 -1 -20 10 -10 11
-66 1 -60 -10 6 -11 -10 -1 -20 10 -10 11 -66 1 -60 -10 6 -11 -10 -1 -20 10
-10 11 -66 1 -60 -10 6 -11 -10 -1 -20 10 -10 11 -66 1 -60 -10 6 -11 -10 -1
-20 10 -10 11 -66 1 -60 -10 6 -11 -10 -1 -20 10 -10 11 -66 1 -60 -12 8 -10
-10 3 -23 8 -8 8 -13 0 -17 -8 -5 -8 -13 -1 -27 7 -13 7 -19 0 -19 -5 0 -10
-5 -10 -11 0 -5 4 -8 8 -5 12 7 9 -38 -3 -46 -6 -5 -4 -8 5 -8 13 0 13 -1 0
-10 -13 -9 -13 -11 0 -20 13 -9 13 -10 0 -10 -13 0 -13 -1 0 -10 9 -6 10 -10
3 -10 -7 0 -10 -10 -8 -22 4 -21 3 -22 -9 -5 -12 16 -14 16 -20 1 -6 -15 -8
-15 -32 1 -15 9 -23 12 -20 6 4 -6 3 -11 -2 -11 -6 0 -13 7 -16 16 -3 8 -11
12 -17 8 -8 -4 -9 -3 -5 4 4 6 14 9 24 6 14 -5 14 -4 2 4 -8 6 -18 8 -22 6 -4
-3 -8 0 -8 5 0 6 -9 11 -19 11 -10 0 -22 7 -25 16 -5 13 -4 14 7 6 10 -9 14
-8 14 2 0 14 -21 16 -33 3 -4 -4 -12 -7 -18 -7 -6 0 -4 5 4 10 10 6 11 10 3
10 -7 0 -13 5 -13 11 0 5 5 7 10 4 16 -10 11 1 -7 16 -11 10 -14 10 -9 2 5 -9
0 -13 -13 -13 -12 0 -21 5 -21 11 0 5 -6 7 -12 3 -10 -6 -10 -4 0 8 15 19 3
31 -18 17 -20 -12 -30 -11 -30 2 0 5 4 8 8 5 5 -3 9 1 9 8 0 8 -7 12 -15 8
-11 -4 -13 -2 -7 9 7 12 6 12 -11 -1 -10 -8 -16 -10 -12 -6 5 5 -2 14 -15 21
-12 6 -21 17 -19 24 1 7 -2 10 -8 6 -8 -5 -8 -11 -1 -19 8 -9 7 -13 -4 -13 -8
0 -12 4 -9 9 3 4 0 8 -6 8 -6 0 -9 3 -6 8 2 4 -7 13 -21 19 l-25 12 18 -22
c19 -21 19 -21 -1 -7 -11 8 -26 21 -33 28 -8 7 -18 9 -24 6 -7 -4 -8 -2 -4 4
5 8 -1 12 -16 12 -42 0 -57 3 -52 12 3 5 10 5 16 2 7 -4 8 -2 4 5 -4 6 -11 9
-16 6 -5 -3 -14 3 -20 12 -9 16 -10 15 -7 -7 2 -14 2 -19 0 -12 -3 6 -9 12
-14 12 -6 0 -7 4 -4 10 4 6 -2 7 -18 1 -21 -8 -26 -6 -37 15 -8 13 -17 24 -22
24 -5 0 -6 -4 -3 -10 3 -5 1 -10 -4 -10 -6 0 -11 5 -11 10 0 7 -8 6 -22 -1
-21 -11 -22 -11 -9 5 8 9 11 19 7 23 -3 3 -6 1 -6 -6 0 -7 -6 -11 -14 -8 -8 3
-17 1 -20 -6 -2 -7 -5 -4 -5 6 -1 9 5 17 12 17 8 0 7 3 -3 9 -19 13 -30 4 -24
-17 4 -9 -4 -3 -16 13 -12 17 -20 22 -16 13 3 -10 1 -18 -4 -18 -6 0 -10 4
-10 10 0 5 -7 6 -17 3 -12 -5 -14 -3 -8 7 6 10 4 11 -6 4 -21 -13 -40 -14 -32
-1 4 7 0 8 -11 4 -9 -4 -15 -3 -13 1 3 4 -2 13 -10 21 -13 12 -14 11 -8 -8 4
-13 2 -21 -5 -21 -6 0 -9 4 -5 9 3 5 1 12 -5 16 -6 4 -7 11 -4 17 4 7 2 8 -5
4 -6 -4 -9 -11 -7 -15 3 -4 -6 -7 -19 -7 -13 0 -21 4 -18 10 4 5 -1 7 -10 3
-12 -4 -14 -2 -10 10 4 10 2 14 -4 10 -16 -10 -44 3 -36 17 5 8 3 8 -8 0 -17
-14 -49 -14 -49 -1 0 6 -3 7 -7 4 -3 -4 -12 -2 -19 4 -8 7 -14 6 -20 -2 -5 -8
-3 -9 6 -4 9 5 11 4 6 -3 -5 -9 -13 -9 -27 -2 -10 6 -25 10 -32 9 -30 -4 -39
1 -32 19 4 12 1 11 -15 -5 -21 -24 -31 -29 -29 -15 3 20 -3 23 -18 11 -15 -11
-16 -11 -5 1 17 20 15 35 -3 20 -12 -10 -15 -10 -15 0 0 10 -3 10 -15 0 -9 -7
-18 -10 -22 -6 -3 3 0 6 8 7 8 1 3 4 -11 8 -14 4 -37 4 -53 0 -15 -4 -26 -5
-23 -1 2 4 -3 14 -12 22 -14 13 -15 12 -9 -3 3 -9 2 -17 -4 -17 -6 0 -7 -5 -3
-12 4 -6 3 -8 -4 -4 -6 3 -9 19 -7 34 4 25 4 26 -7 5 -6 -12 -18 -25 -27 -28
-13 -5 -14 -4 -3 6 16 17 15 26 -3 26 -8 0 -12 -4 -9 -9 3 -4 -2 -5 -10 -2 -9
3 -13 11 -9 18 4 6 -1 5 -10 -3 -11 -9 -17 -10 -17 -2 0 6 -5 11 -11 11 -5 0
-7 -5 -3 -12 5 -7 3 -8 -7 -2 -24 14 -51 16 -43 2 5 -10 4 -10 -6 -1 -7 6 -19
9 -28 6 -8 -4 -13 -2 -9 3 3 5 -3 10 -13 10 -15 0 -17 -3 -7 -15 10 -12 9 -13
-3 -6 -22 13 -60 14 -60 1 0 -6 -5 -3 -11 7 -8 14 -14 16 -25 6 -12 -10 -13
-9 -8 5 3 9 2 16 -2 17 -5 0 -17 2 -27 4 -9 2 -15 -1 -11 -6 6 -10 3 -11 -38
-13 -15 -1 -24 2 -22 6 3 4 -2 8 -11 8 -10 0 -14 5 -9 13 6 10 4 10 -7 0 -15
-15 -33 -17 -25 -5 3 5 -7 8 -22 7 -15 -1 -36 3 -47 8 -17 9 -18 8 -8 -5 10
-12 10 -15 -2 -15 -8 0 -15 4 -15 8 0 5 -12 4 -26 -1 -14 -6 -23 -6 -20 -1 3
5 -3 11 -15 14 -12 3 -22 0 -26 -9 -3 -8 -9 -11 -14 -8 -5 3 -7 9 -5 13 3 3
-4 7 -14 7 -15 0 -17 -3 -7 -15 9 -12 5 -11 -15 2 -27 17 -28 17 -28 0 -1 -14
-4 -13 -16 7 -8 14 -13 17 -10 8 6 -20 -10 -25 -17 -5 -4 9 -6 9 -6 0 -1 -9
-11 -10 -33 -6 -25 5 -29 3 -23 -8 7 -12 6 -12 -9 0 -10 8 -26 15 -37 16 -15
1 -17 -1 -6 -14 10 -12 9 -13 -1 -7 -19 11 -64 18 -58 8 3 -5 -1 -9 -9 -9 -8
0 -12 4 -9 9 3 4 1 8 -5 8 -5 0 -13 -5 -16 -10 -4 -6 -12 -7 -18 -3 -7 4 -33
8 -58 9 -40 0 -45 -2 -33 -13 8 -8 14 -16 14 -17 0 -5 -40 0 -46 6 -8 9 -35
-2 -29 -12 3 -5 -4 -6 -14 -3 -11 3 -22 12 -24 22 -3 11 -5 10 -6 -6 -1 -16
-6 -20 -21 -16 -11 3 -28 2 -37 -2 -34 -15 -54 -13 -48 4 3 11 0 10 -10 -3
-11 -14 -15 -16 -15 -5 0 12 -2 12 -10 -1 -7 -11 -10 -11 -10 -2 0 7 -5 10
-10 7 -6 -4 -8 -12 -4 -18 3 -7 -1 -4 -9 6 -15 18 -15 18 -22 -2 -5 -18 -9
-19 -28 -9 -19 10 -20 9 -10 -3 10 -12 8 -15 -10 -14 -12 0 -27 4 -34 8 -6 4
-14 3 -18 -2 -3 -6 -13 -7 -22 -4 -12 5 -14 3 -8 -8 7 -12 6 -12 -7 -1 -10 8
-19 9 -22 3 -4 -5 -15 -8 -25 -6 -10 2 -18 -3 -18 -10 0 -8 5 -11 11 -7 18 11
36 11 36 0 0 -6 -7 -8 -15 -5 -8 4 -17 2 -21 -4 -4 -6 -12 -5 -22 3 -12 10
-14 10 -8 1 4 -8 1 -13 -9 -13 -9 0 -13 5 -9 11 4 8 0 7 -15 -1 -12 -6 -19
-15 -17 -19 3 -4 -1 -8 -9 -8 -11 0 -12 5 -3 21 11 20 10 20 -8 6 -27 -21 -34
-32 -26 -45 3 -5 -1 -4 -10 2 -8 7 -18 10 -21 6 -4 -3 -13 -1 -20 6 -11 9 -17
8 -27 -4 -7 -8 -17 -12 -24 -8 -6 4 -4 -2 4 -12 11 -14 11 -17 1 -11 -8 5 -17
3 -23 -5 -8 -11 -9 -10 -4 4 3 9 2 17 -3 17 -5 0 -11 -8 -13 -18 -4 -15 -14
-18 -52 -17 -36 2 -49 -2 -56 -15 -5 -10 -6 -21 -2 -25 4 -4 -3 -2 -16 4 -12
7 -20 17 -16 23 4 7 3 8 -5 4 -6 -4 -9 -11 -7 -15 3 -4 -5 -13 -16 -20 -18
-11 -20 -11 -14 4 5 15 4 16 -9 5 -8 -7 -13 -15 -11 -19 3 -4 0 -13 -6 -21 -8
-12 -9 -12 -4 3 3 9 1 17 -4 17 -6 0 -10 -6 -10 -12 0 -9 -4 -8 -10 2 -6 9
-10 10 -10 3 0 -18 -41 -27 -52 -12 -7 10 -8 8 -3 -7 5 -18 2 -21 -18 -19 -14
2 -24 -2 -24 -10 0 -7 7 -11 16 -8 12 3 12 2 -2 -7 -9 -6 -22 -8 -28 -4 -8 5
-8 1 0 -13 6 -11 8 -23 6 -27 -3 -3 1 -2 7 4 17 14 25 13 32 -6 3 -8 2 -12 -4
-9 -6 3 -10 1 -10 -4 0 -6 7 -11 15 -11 8 0 14 -3 14 -7 -3 -19 2 -33 12 -33
5 0 7 5 3 12 -5 7 -3 8 6 3 10 -6 9 -11 -5 -22 -18 -12 -18 -13 3 -13 15 0 22
-6 22 -20 0 -11 6 -20 14 -20 8 0 17 -7 20 -16 7 -18 19 -12 22 11 1 8 -2 13
-7 9 -5 -3 -9 0 -9 5 0 15 13 14 29 -1 8 -7 11 -8 8 -3 -8 15 51 47 59 33 4
-6 3 -8 -3 -5 -6 4 -19 -3 -29 -16 l-19 -22 24 20 c13 11 26 19 30 18 3 -2 6
5 6 15 0 13 8 17 33 15 22 -1 30 2 25 10 -4 7 1 5 11 -2 16 -13 17 -13 14 3
-2 12 4 20 15 21 9 2 17 -1 17 -6 0 -5 5 -9 11 -9 5 0 7 5 4 10 -4 6 6 10 22
10 23 0 25 2 13 11 -12 9 -12 10 3 5 10 -3 21 -6 23 -6 3 0 2 -6 -2 -12 -8
-13 17 4 43 29 7 6 21 10 30 9 10 -2 21 2 25 8 5 8 8 7 8 -1 0 -7 5 -13 11
-13 6 0 9 7 6 14 -4 10 -1 13 8 9 8 -3 12 -10 9 -17 -3 -6 1 -3 9 7 16 19 32
24 21 5 -4 -7 -3 -8 4 -4 7 4 12 13 12 21 0 8 4 17 10 20 6 4 7 -1 3 -12 -6
-16 -5 -16 10 -4 9 7 17 10 17 7 0 -4 10 -2 21 5 15 8 19 8 15 0 -4 -6 -2 -11
3 -11 6 0 11 5 11 11 0 5 5 7 10 4 6 -4 7 -12 4 -18 -4 -7 4 -1 18 11 23 21
27 22 35 7 9 -15 11 -15 24 1 8 10 9 15 2 11 -6 -4 -15 -2 -19 4 -4 8 -3 9 5
5 6 -4 14 0 17 9 9 22 24 -1 19 -28 -3 -14 -1 -16 9 -8 7 6 17 7 22 3 4 -4 3
0 -4 10 -8 10 -9 19 -3 22 5 3 11 0 14 -6 3 -10 8 -10 18 1 12 12 12 13 0 6
-10 -6 -12 -4 -6 4 5 9 11 9 17 3 7 -7 19 -7 34 -2 15 6 26 5 30 -1 4 -8 9 -7
15 2 7 12 9 11 9 0 0 -11 4 -10 16 5 8 10 13 14 10 8 -8 -15 17 -25 35 -14 7
5 18 5 25 -1 8 -7 14 -7 18 0 4 5 15 8 26 6 14 -3 17 1 13 13 -6 15 -5 15 10
3 9 -7 14 -18 10 -24 -3 -6 -1 -7 5 -3 8 5 9 13 3 25 -8 15 -4 17 32 16 23 -1
50 3 61 8 12 6 16 5 12 -1 -3 -5 2 -16 11 -23 12 -10 14 -10 9 -1 -7 12 1 16
42 14 13 -1 20 3 16 9 -6 10 5 6 37 -13 3 -1 13 3 22 10 11 9 17 10 22 2 5 -8
10 -8 20 0 10 8 15 8 20 0 5 -8 10 -8 20 0 10 8 15 8 21 -1 5 -8 3 -9 -6 -4
-8 5 -11 4 -6 -3 4 -6 13 -9 21 -6 8 4 12 11 9 16 -4 6 4 4 17 -2 18 -10 24
-10 27 -1 3 9 7 9 18 0 11 -9 14 -8 14 2 0 11 2 11 10 -1 9 -13 11 -13 20 0 6
10 10 11 10 3 0 -7 5 -13 11 -13 5 0 7 5 3 12 -5 7 -3 8 7 3 17 -11 50 -12 67
-1 8 5 10 2 5 -11 -6 -16 -4 -16 17 2 13 11 20 14 15 6 -5 -9 -3 -12 6 -9 8 3
24 1 37 -3 14 -5 21 -5 18 0 -4 5 2 8 11 6 10 -1 24 2 31 8 10 8 12 7 10 -4
-4 -17 82 -22 95 -5 6 7 7 4 3 -6 -5 -18 25 -34 44 -23 5 3 10 2 10 -2 0 -5
14 -9 31 -9 20 -1 27 1 18 6 -7 5 -17 6 -23 3 -5 -3 -6 -1 -2 6 8 12 19 8 49
-17 16 -15 17 -14 12 4 -6 17 -5 18 7 2 13 -15 15 -15 26 0 10 15 11 15 5 -2
-5 -16 -3 -18 13 -12 26 11 64 16 63 8 -3 -19 3 -30 17 -36 8 -3 13 -2 10 3
-7 10 62 6 72 -4 4 -5 1 -5 -7 0 -10 6 -12 4 -6 -4 5 -9 10 -10 18 -2 23 23
52 11 49 -19 -1 -9 63 -4 79 5 11 7 12 6 2 -6 -10 -12 -7 -14 15 -13 15 0 30
-4 34 -10 5 -7 8 -3 8 9 0 16 2 17 9 5 6 -8 7 -18 4 -24 -4 -5 -1 -6 8 0 19
11 59 17 41 6 -11 -7 -11 -11 0 -18 15 -12 28 -12 46 0 7 4 16 5 19 2 4 -3 1
-6 -5 -6 -7 0 -12 -5 -12 -10 0 -7 6 -7 19 0 27 14 36 13 22 -4 -9 -11 -9 -16
0 -22 8 -4 9 -3 5 4 -4 7 -3 12 3 12 5 0 12 -6 15 -12 3 -7 3 -2 0 11 -4 16
-3 21 5 17 6 -4 11 -14 11 -22 0 -8 3 -14 8 -15 4 0 16 -3 27 -5 23 -6 45 -7
64 -2 8 2 17 -8 22 -22 4 -14 7 -20 8 -14 1 6 13 10 29 7 15 -2 38 -5 52 -7
13 -2 25 -8 26 -15 2 -6 0 -7 -3 -1 -2 5 -9 8 -14 4 -15 -9 -10 -20 11 -21 11
-1 20 3 20 8 0 6 5 7 10 4 6 -4 7 -11 4 -17 -4 -6 1 -8 15 -3 11 3 21 2 21 -3
0 -5 12 -17 26 -27 15 -9 24 -12 20 -7 -3 6 -2 13 4 17 5 3 10 -1 10 -9 0 -17
20 -17 32 -1 4 6 8 2 8 -9 0 -12 5 -16 15 -13 8 4 17 1 21 -5 4 -7 3 -8 -4 -4
-7 4 -12 2 -12 -3 0 -15 27 -14 33 2 3 6 6 3 6 -8 1 -17 3 -17 11 -5 8 13 10
13 10 -2 0 -14 7 -17 30 -14 16 2 27 -1 24 -6 -3 -5 -12 -7 -20 -4 -26 10 -14
-2 16 -17 27 -14 31 -14 40 1 9 15 10 15 8 -3 -1 -11 0 -20 3 -20 3 0 16 -8
31 -17 19 -12 28 -14 37 -5 10 10 16 -1 12 -25 -2 -13 17 -9 21 4 6 16 55 -21
62 -47 6 -25 7 -36 2 -32 -2 1 -13 -7 -25 -17 -17 -16 -19 -22 -8 -34 10 -13
9 -14 -2 -7 -11 6 -13 4 -8 -8 3 -10 2 -17 -4 -17 -6 0 -7 -5 -4 -10 4 -6 12
-7 18 -4 7 4 1 -5 -13 -21 -14 -16 -20 -25 -14 -22 15 9 27 -20 12 -29 -7 -5
-8 -2 -3 6 5 9 4 11 -4 6 -9 -6 -9 -11 0 -22 9 -11 8 -14 -2 -14 -11 0 -11 -2
1 -10 13 -9 13 -11 0 -20 -13 -9 -13 -10 0 -10 13 0 13 -1 0 -10 -11 -7 -11
-10 -2 -10 8 0 10 -5 5 -12 -11 -18 -13 -38 -3 -38 10 0 8 -20 -4 -39 -6 -10
-5 -12 2 -7 7 4 12 2 12 -3 0 -6 -6 -11 -12 -11 -10 0 -9 -3 1 -9 8 -5 9 -11
3 -15 -11 -6 -10 -19 3 -50 5 -12 3 -21 -6 -27 -12 -7 -12 -9 1 -9 13 0 13 -1
0 -10 -11 -7 -11 -10 -2 -10 8 0 10 -5 5 -12 -10 -18 -13 -38 -4 -38 4 0 8 -7
8 -15 0 -8 -5 -15 -11 -15 -6 0 -5 -4 2 -9 10 -6 9 -11 -4 -22 -12 -9 -15 -10
-10 -1 4 6 2 12 -3 12 -6 0 -11 -5 -11 -12 0 -6 -9 -3 -20 7 -17 16 -20 16
-15 3 7 -17 -9 -19 -31 -6 -6 4 -11 1 -11 -7 0 -7 8 -12 19 -10 10 2 18 0 18
-6 0 -5 -11 -7 -24 -5 -13 2 -33 -2 -45 -10 -12 -9 -21 -12 -21 -8 0 3 -7 1
-15 -6 -13 -11 -14 -10 -9 6 9 24 0 16 -16 -15 -6 -13 -8 -21 -2 -17 5 3 13
-1 16 -10 3 -8 2 -13 -3 -10 -5 3 -12 -1 -15 -10 -3 -8 -2 -13 3 -10 5 3 12
-1 15 -10 3 -8 2 -13 -3 -10 -5 3 -12 -1 -15 -10 -9 -24 -7 -31 5 -14 9 12 10
11 6 -6 -2 -12 0 -30 6 -40 10 -18 9 -18 -8 -4 -18 14 -18 13 0 -11 18 -24 21
-25 32 -10 12 14 12 14 6 -4 -3 -11 -2 -17 2 -12 5 4 19 0 33 -9 13 -9 22 -12
19 -7 -3 5 -2 15 4 23 7 12 9 9 9 -10 0 -20 2 -22 10 -10 8 12 10 12 11 -5 l0
-20 9 20 c7 17 9 17 9 3 1 -11 6 -15 16 -12 8 3 22 -1 31 -10 13 -13 14 -19 4
-31 -10 -12 -10 -15 0 -15 8 0 9 -4 3 -12 -10 -14 -10 -24 2 -52 5 -12 3 -21
-6 -27 -12 -7 -12 -9 1 -9 13 0 13 -1 0 -10 -11 -7 -11 -10 -2 -10 8 0 10 -5
5 -12 -11 -18 -13 -38 -3 -38 10 0 8 -20 -4 -39 -6 -10 -5 -12 2 -7 7 4 12 2
12 -3 0 -6 -6 -11 -12 -11 -10 0 -9 -3 1 -9 8 -5 9 -11 3 -15 -11 -6 -10 -19
3 -50 5 -12 3 -21 -6 -27 -12 -7 -12 -9 1 -9 13 0 13 -1 0 -10 -11 -7 -11 -10
-2 -10 8 0 10 -5 5 -12 -11 -18 -13 -38 -3 -38 10 0 8 -20 -4 -39 -6 -10 -5
-12 2 -7 7 4 12 2 12 -3 0 -6 -6 -11 -12 -11 -10 0 -9 -3 1 -9 8 -5 9 -11 3
-15 -11 -6 -10 -19 3 -50 5 -12 3 -21 -6 -27 -12 -7 -12 -9 1 -9 13 0 13 -1 0
-10 -11 -7 -11 -10 -2 -10 8 0 10 -5 5 -12 -11 -18 -13 -38 -3 -38 10 0 8 -20
-4 -39 -6 -10 -5 -12 2 -7 7 4 12 2 12 -3 0 -6 -6 -11 -12 -11 -9 0 -8 -4 2
-10 13 -8 12 -10 -3 -10 -11 0 -16 -5 -12 -12 4 -7 0 -5 -8 4 -13 17 -15 16
-26 -5 -6 -12 -10 -15 -7 -6 2 9 -2 16 -10 16 -7 0 -11 -4 -8 -9 3 -4 0 -16
-6 -25 -11 -17 -11 -17 -6 0 3 9 1 17 -4 17 -5 0 -7 8 -4 18 5 14 4 14 -4 2
-6 -8 -8 -18 -5 -24 4 -5 -3 -7 -15 -4 -12 4 -20 2 -17 -2 3 -5 1 -11 -5 -15
-5 -3 -10 -2 -10 3 0 5 -7 9 -15 9 -8 0 -11 -5 -8 -10 4 -6 0 -8 -11 -4 -14 6
-15 4 -5 -14 6 -12 7 -19 1 -15 -5 3 -13 -1 -16 -10 -3 -8 -2 -13 3 -10 5 3
12 -1 15 -10 3 -8 2 -13 -3 -10 -5 3 -12 -1 -15 -10 -3 -8 -2 -13 3 -10 5 3
12 -1 15 -10 3 -8 2 -13 -3 -10 -5 3 -12 -1 -15 -10 -3 -8 -2 -13 3 -10 5 3
12 -1 15 -10 3 -8 2 -13 -3 -10 -5 3 -12 -1 -15 -10 -4 -10 -2 -13 6 -8 7 5 9
1 6 -13 -5 -20 14 -25 40 -9 8 5 15 -1 21 -16 6 -13 10 -18 10 -12 1 7 8 15
17 18 14 5 15 4 5 -8 -9 -11 -8 -15 4 -20 10 -3 15 1 16 12 0 12 3 10 10 -7 5
-14 15 -21 23 -18 10 4 13 0 11 -14 -2 -10 -6 -23 -10 -28 -3 -5 -1 -12 5 -16
5 -3 10 -11 10 -16 0 -6 -6 -7 -12 -3 -9 5 -9 2 1 -9 10 -12 10 -17 2 -17 -8
0 -7 -6 3 -16 21 -20 20 -25 -1 -17 -16 6 -16 5 -4 -10 10 -12 10 -17 2 -17
-8 0 -7 -6 3 -16 21 -20 20 -25 -1 -17 -16 6 -16 5 -4 -10 10 -12 10 -17 2
-17 -8 0 -7 -6 3 -16 21 -20 20 -25 -1 -17 -16 6 -16 5 -4 -10 10 -12 10 -17
2 -17 -8 0 -7 -6 3 -16 21 -20 20 -25 -1 -17 -16 6 -16 5 -4 -10 10 -12 10
-17 2 -17 -8 0 -7 -6 3 -16 21 -20 20 -25 -1 -17 -16 6 -16 5 -4 -10 10 -12
10 -17 2 -17 -8 0 -7 -6 3 -16 21 -20 20 -25 -1 -17 -16 6 -16 5 -4 -10 10
-12 10 -17 2 -17 -8 0 -7 -6 3 -16 18 -17 21 -28 7 -19 -5 3 -12 1 -16 -5 -3
-5 -1 -10 6 -10 8 0 7 -5 -2 -17 -8 -9 -9 -14 -3 -10 7 4 15 0 18 -9 3 -8 2
-12 -3 -9 -5 3 -12 1 -16 -5 -3 -5 -1 -10 6 -10 8 0 7 -5 -2 -17 -8 -9 -9 -14
-3 -10 7 4 15 0 18 -9 3 -8 2 -12 -3 -9 -5 3 -12 1 -16 -5 -3 -5 -1 -10 6 -10
7 0 9 -3 6 -6 -3 -4 -2 -15 4 -25 8 -15 6 -17 -8 -12 -16 6 -16 5 -4 -10 11
-14 11 -17 0 -17 -9 0 -10 -3 -4 -8 6 -4 11 -14 10 -22 0 -11 -9 -14 -32 -12
-26 3 -32 -1 -36 -20 l-4 -23 -2 23 c-1 26 -20 30 -22 5 -1 -10 -1 -22 0 -26
1 -5 -3 -6 -9 -2 -6 3 -8 11 -5 16 4 5 2 9 -4 9 -5 0 -12 -6 -14 -12 -4 -10
-6 -10 -6 0 -1 6 -6 12 -12 12 -5 0 -7 -5 -3 -12 4 -6 3 -9 -2 -6 -17 10 -54
-10 -48 -26 3 -8 2 -21 -2 -28 -12 -19 -14 -39 -3 -32 13 8 11 -10 -3 -25 -11
-12 -9 -13 7 -7 16 6 17 5 8 -5 -9 -9 -9 -17 -2 -32 8 -13 8 -17 1 -13 -6 3
-13 2 -17 -4 -6 -9 8 -14 28 -11 5 1 6 -3 2 -9 -3 -6 -11 -8 -16 -5 -5 4 -4
-5 3 -20 6 -14 14 -22 17 -18 4 4 11 12 16 17 6 6 2 6 -10 2 -15 -5 -17 -4 -8
5 14 14 34 3 27 -14 -3 -8 6 -13 23 -14 23 -1 24 0 9 6 -19 7 -19 8 2 13 12 4
20 2 17 -2 -8 -13 25 -28 49 -22 12 3 18 1 14 -3 -4 -4 -3 -17 3 -28 7 -13 7
-17 1 -13 -6 3 -13 2 -17 -4 -3 -5 -1 -10 6 -10 8 0 7 -5 -2 -17 -10 -11 -10
-14 -1 -9 15 9 16 -6 0 -22 -9 -9 -8 -12 8 -12 15 0 16 -2 5 -9 -8 -5 -11 -16
-8 -24 3 -9 1 -18 -6 -21 -8 -3 -8 -5 2 -5 11 -1 11 -4 0 -18 -8 -10 -9 -14
-2 -10 8 5 11 0 10 -13 -1 -11 -6 -20 -11 -20 -5 0 -1 -7 10 -16 10 -8 14 -13
8 -10 -7 3 -15 -1 -18 -10 -3 -8 -2 -12 4 -9 5 3 8 -4 7 -15 -1 -11 -6 -20
-11 -20 -5 0 -1 -7 10 -16 10 -8 14 -13 8 -10 -7 3 -15 -1 -18 -10 -3 -8 -2
-12 4 -9 5 3 8 -4 7 -15 -1 -11 -6 -20 -11 -20 -5 0 -1 -7 10 -16 10 -8 14
-13 8 -10 -7 3 -15 -1 -18 -10 -3 -8 -2 -12 4 -9 5 3 8 -4 7 -15 -1 -11 -6
-20 -11 -20 -5 0 -1 -7 10 -16 10 -8 14 -13 8 -10 -7 3 -15 -1 -18 -10 -3 -8
-2 -12 4 -9 5 3 8 -4 7 -15 -1 -11 -6 -20 -11 -20 -5 0 -1 -7 10 -16 10 -8 14
-13 8 -10 -7 3 -15 -1 -18 -10 -3 -8 -2 -12 4 -9 5 3 8 -4 7 -15 -1 -11 -6
-20 -11 -20 -5 0 -1 -7 10 -16 10 -8 14 -13 8 -10 -7 3 -15 -1 -18 -10 -3 -8
-2 -12 4 -9 5 3 8 -4 7 -15 -1 -11 -6 -20 -11 -20 -5 0 -1 -7 10 -16 10 -8 14
-13 8 -10 -7 3 -15 -1 -18 -10 -3 -8 -2 -12 4 -9 5 3 8 -4 7 -15 -1 -11 -6
-20 -11 -20 -5 0 -1 -7 10 -16 10 -8 13 -12 5 -8 -10 5 -13 3 -8 -8 3 -9 0
-21 -6 -28 -9 -10 -9 -11 1 -6 6 4 12 3 12 -1 0 -5 -6 -15 -12 -22 -8 -8 -8
-11 -2 -8 7 4 14 -2 17 -13 3 -11 1 -18 -3 -15 -5 3 -11 1 -15 -5 -3 -5 -1
-10 6 -10 8 0 7 -5 -2 -17 -10 -11 -10 -14 -1 -9 15 9 16 -6 0 -22 -9 -9 -8
-12 8 -12 15 0 16 -2 5 -9 -8 -5 -11 -16 -8 -25 4 -9 1 -16 -6 -16 -8 0 -8 -3
-2 -8 13 -8 13 -22 1 -41 -6 -10 -5 -12 2 -7 16 10 15 -7 0 -23 -8 -8 -8 -11
-2 -8 7 4 14 -2 17 -13 3 -11 1 -18 -3 -15 -5 3 -11 1 -15 -5 -3 -5 -1 -10 6
-10 8 0 7 -5 -2 -17 -8 -10 -9 -14 -2 -10 15 9 14 -35 -2 -45 -6 -5 -5 -8 4
-8 11 0 11 -3 0 -17 -8 -9 -9 -14 -3 -10 7 4 14 0 18 -8 3 -8 2 -14 -2 -12 -4
1 -7 -2 -7 -8 0 -5 4 -9 10 -7 5 2 1 -6 -9 -17 -19 -21 -19 -21 0 -21 15 0 16
-2 5 -9 -8 -5 -11 -16 -8 -24 3 -9 1 -18 -6 -21 -8 -3 -8 -5 2 -5 11 -1 11 -4
0 -18 -8 -10 -9 -14 -2 -10 6 4 15 3 18 -3 4 -6 1 -9 -7 -8 -7 2 -12 -2 -11
-9 2 -6 -6 -15 -17 -18 -11 -4 -18 -11 -15 -16 4 -5 -1 -9 -9 -9 -9 0 -16 -4
-16 -10 0 -5 -6 -7 -13 -4 -8 3 -19 -5 -25 -18 -12 -23 -12 -23 -6 2 l6 25
-17 -23 c-11 -15 -24 -22 -36 -19 -16 4 -43 -13 -36 -24 1 -2 -4 2 -10 10 -11
13 -13 11 -14 -10 0 -13 -3 -18 -6 -11 -7 18 -30 15 -42 -5 -6 -10 -11 -14
-11 -9 0 5 -6 3 -14 -3 -11 -9 -16 -6 -25 19 -5 17 -7 41 -3 53 9 29 8 59 -3
77 -14 23 -14 52 1 39 9 -8 10 -2 4 26 -5 24 -4 35 4 35 6 0 3 7 -7 14 -11 9
-14 15 -7 18 7 2 13 18 14 35 2 28 0 31 -13 20 -12 -9 -12 -6 2 15 12 19 14
29 5 34 -7 4 -8 3 -4 -4 4 -7 2 -12 -3 -12 -14 0 -13 11 2 32 11 13 13 33 8
81 -1 5 -5 6 -10 3 -8 -5 -8 22 -1 32 2 1 3 6 4 11 0 5 5 13 9 17 4 5 -2 16
-15 26 -13 10 -16 16 -7 13 10 -4 19 0 22 9 4 11 1 13 -10 9 -11 -4 -14 -3 -9
6 4 6 2 19 -6 28 -7 9 -8 14 -2 10 7 -4 17 0 24 8 10 12 9 16 -4 21 -16 6 -18
66 -1 81 4 5 5 2 0 -6 -5 -10 -4 -12 4 -7 6 4 8 13 4 19 -11 18 -12 36 -2 43
5 3 5 12 -1 23 -5 10 -6 21 -3 25 3 3 2 6 -3 6 -5 0 -10 10 -11 21 -2 21 -1
21 12 3 13 -18 14 -18 8 3 -3 13 -9 23 -13 23 -4 0 -11 7 -14 16 -5 13 -4 14
7 5 12 -9 13 -6 9 15 -4 21 -2 25 9 19 8 -4 1 4 -16 19 -16 14 -25 25 -19 26
14 0 14 31 1 50 -9 12 -9 13 3 2 21 -18 25 -15 26 18 1 17 -3 30 -8 30 -5 0
-6 -4 -3 -10 4 -6 -1 -7 -11 -3 -15 5 -15 7 2 17 31 18 26 61 -7 58 -3 -1 -6
5 -6 13 0 11 5 12 20 3 13 -6 17 -6 13 0 -3 6 -1 12 6 14 7 3 5 7 -6 11 -11 5
-15 3 -10 -5 4 -7 3 -8 -5 -4 -6 4 -9 11 -6 16 3 4 -1 11 -7 13 -10 4 -10 6 0
6 6 1 12 6 12 12 0 5 -5 7 -12 3 -7 -4 -8 -3 -4 5 6 9 11 9 21 1 9 -8 15 -8
20 0 4 6 1 9 -7 8 -7 -2 -12 2 -11 9 2 7 -3 11 -10 9 -6 -1 -9 -1 -4 1 4 3 7
11 7 18 0 7 8 16 18 18 16 4 16 5 0 6 -10 0 -18 8 -18 17 0 8 4 13 8 10 4 -2
9 4 9 16 2 19 1 19 -18 -3 -10 -12 -19 -17 -19 -11 0 6 5 14 10 17 12 7 14 55
2 55 -10 0 -9 60 1 77 4 7 0 17 -10 23 -17 11 -17 11 0 6 15 -5 17 -2 12 14
-5 16 -3 19 12 13 11 -3 7 3 -9 16 -16 12 -28 28 -28 34 0 7 5 4 11 -5 5 -10
17 -18 26 -18 16 0 16 1 0 13 -17 13 -33 72 -16 62 5 -4 7 -11 4 -16 -3 -5 1
-6 9 -3 9 3 16 10 16 16 0 5 -4 6 -10 3 -5 -3 -10 -2 -10 4 0 5 6 12 13 15 6
3 1 3 -13 0 -24 -7 -25 -6 -7 14 12 13 15 22 8 27 -6 3 -11 11 -11 16 0 6 4 8
9 4 5 -3 13 0 17 6 4 7 3 9 -3 6 -6 -4 -13 0 -17 8 -3 8 2 18 11 23 11 6 12
11 4 16 -6 4 -11 3 -11 -2 0 -5 -6 -9 -14 -9 -11 0 -9 8 7 31 26 37 32 57 14
53 -6 -1 -11 6 -9 16 2 11 -4 17 -15 17 -14 0 -15 2 -5 9 15 9 15 20 1 37 -6
7 -3 16 8 25 16 13 17 12 4 -3 -7 -10 -9 -18 -3 -18 14 0 23 28 12 35 -6 4
-16 3 -22 -2 -7 -4 -5 6 6 21 17 27 17 29 1 22 -14 -5 -15 -3 -8 6 6 7 10 20
10 28 0 8 3 26 8 40 7 21 6 23 -6 13 -12 -10 -15 -8 -15 7 0 10 3 18 6 17 3
-1 5 3 5 8 0 6 -4 9 -10 7 -5 -2 -5 2 2 9 8 8 17 9 26 3 7 -5 1 2 -13 15 -14
13 -19 20 -12 17 15 -9 15 -5 2 29 -6 15 -6 24 -1 20 5 -3 12 -1 16 5 3 5 2
10 -3 10 -15 0 -24 32 -12 44 8 8 9 6 5 -5 -4 -10 -2 -19 3 -23 10 -6 9 20 -2
46 -4 9 -2 27 5 40 12 22 11 22 -6 8 -17 -14 -17 -13 -8 5 9 15 11 90 3 90 -1
0 -3 10 -4 22 -1 12 1 20 5 18 4 -3 10 2 13 11 3 8 2 13 -3 10 -5 -3 -11 1
-15 9 -3 8 -2 14 2 14 21 -3 24 3 6 17 -19 15 -19 16 0 9 19 -6 19 -5 1 15
-15 16 -16 23 -6 33 10 9 11 8 6 -8 -6 -16 -5 -17 4 -5 15 21 14 30 -6 31 -10
0 -13 3 -7 5 7 3 8 20 4 50 -4 27 -3 47 3 51 6 4 7 1 2 -7 -5 -9 -4 -11 3 -6
17 10 15 26 -3 26 -8 0 -15 5 -15 10 0 6 4 10 9 10 6 0 6 12 1 30 -7 24 -6 30
6 30 8 0 12 5 9 10 -4 6 -10 8 -13 6 -9 -5 -6 99 3 114 3 5 1 10 -4 10 -6 0
-11 5 -11 11 0 5 4 8 9 5 5 -3 7 10 4 29 -3 25 -1 35 9 36 7 0 23 2 36 5 13 2
21 0 18 -5 -3 -5 3 -7 14 -4 11 3 17 9 14 14 -3 5 2 6 10 3 9 -3 13 -11 10
-18 -3 -6 2 -2 10 8 9 11 16 15 16 9 0 -6 7 -13 14 -16 10 -4 13 -1 10 8 -4 9
2 13 19 11 20 -2 23 1 19 17 -4 15 -2 18 8 12 9 -6 11 -4 5 5 -6 9 -4 12 7 8
16 -7 18 17 3 41 -5 10 -4 12 3 7 16 -10 15 7 0 23 -10 11 -10 13 0 7 7 -4 12
-1 12 8 0 9 -5 16 -11 16 -5 0 -7 5 -4 10 4 6 11 8 16 5 5 -3 6 1 3 9 -3 9
-11 16 -18 16 -6 0 -4 5 4 10 12 8 12 10 1 10 -9 0 -11 7 -8 21 4 16 3 18 -8
9 -9 -8 -14 -6 -19 6 -3 9 -4 20 0 25 3 5 0 9 -5 9 -6 0 -11 -8 -11 -17 0 -15
-2 -14 -16 3 -8 10 -12 12 -8 4 7 -13 5 -13 -9 -1 -12 9 -17 10 -17 2 0 -7 -5
-9 -11 -6 -17 11 -59 13 -59 3 0 -5 -6 -6 -12 -1 -7 4 -22 6 -32 4 -15 -2 -18
2 -13 18 3 12 0 21 -6 21 -8 0 -7 4 2 9 11 7 11 9 0 14 -12 5 -12 7 0 15 11 8
11 10 0 15 -12 5 -12 6 0 6 10 1 10 6 -3 26 -15 22 -15 26 -2 31 12 5 13 11 6
24 -5 10 -7 20 -2 22 4 2 6 42 4 91 -2 49 -7 85 -13 82 -5 -3 -6 1 -3 9 3 9
11 13 18 9 8 -5 8 -3 0 8 -6 8 -10 21 -9 30 2 9 -3 16 -11 16 -7 0 -10 -5 -6
-11 10 -17 11 -37 1 -30 -5 3 -7 9 -4 14 3 5 1 12 -5 15 -8 5 -7 12 2 23 7 10
8 14 4 10 -9 -8 -35 19 -36 36 0 6 6 2 13 -8 12 -16 13 -16 13 3 0 11 -3 18
-6 16 -3 -1 -15 1 -27 6 -16 6 -21 13 -16 25 4 12 3 15 -5 10 -8 -4 -12 0 -12
11 0 15 -2 16 -10 3 -8 -13 -10 -12 -10 3 0 12 -4 16 -12 11 -8 -5 -7 0 2 11
8 10 10 16 3 12 -6 -4 -20 5 -33 20 -18 24 -19 24 -10 4 10 -19 10 -22 -2 -15
-7 4 -19 16 -26 26 -10 14 -18 16 -32 8 -28 -15 -37 -12 -14 4 10 8 16 18 11
22 -4 4 -7 2 -7 -6 0 -10 -4 -10 -17 1 -11 9 -14 10 -9 2 5 -9 2 -11 -9 -7
-13 5 -13 9 -3 23 11 14 11 14 -2 5 -21 -16 -60 -24 -60 -13 0 5 5 9 10 9 6 0
10 4 10 10 0 5 -7 6 -17 3 -12 -5 -14 -3 -8 7 5 8 4 11 -3 6 -6 -4 -9 -14 -6
-24 5 -13 4 -14 -4 -4 -5 8 -12 13 -16 13 -20 -3 -26 0 -20 10 5 8 1 8 -14 0
-16 -8 -21 -7 -26 5 -3 8 -2 12 4 9 6 -3 7 1 4 9 -3 9 -11 13 -18 9 -6 -4 -3
6 8 21 10 16 14 26 8 22 -5 -3 -13 1 -16 10 -3 8 -2 13 3 10 5 -3 11 1 15 9 3
8 1 17 -3 20 -13 8 -19 55 -8 62 6 4 7 1 2 -7 -6 -9 -4 -11 4 -6 9 6 8 13 -6
29 -10 11 -13 17 -7 14 7 -4 15 0 18 9 3 8 2 13 -3 10 -5 -3 -11 1 -15 9 -3 8
0 17 6 21 7 5 8 2 3 -6 -6 -9 -4 -11 4 -6 9 6 8 13 -6 29 -10 11 -13 17 -7 14
13 -8 28 20 15 28 -13 8 -19 55 -8 62 6 4 7 1 2 -7 -6 -9 -4 -11 4 -6 9 6 8
13 -6 29 -10 11 -13 17 -7 14 13 -8 28 20 15 28 -13 8 -19 55 -8 62 6 4 7 1 2
-7 -6 -9 -4 -11 4 -6 9 6 8 13 -6 29 -10 11 -13 17 -7 14 7 -4 15 0 18 9 3 8
2 13 -3 10 -5 -3 -11 1 -15 9 -3 8 0 17 6 21 7 5 8 2 3 -6 -6 -9 -4 -11 4 -6
9 6 8 13 -6 29 -10 11 -13 17 -7 14 15 -8 27 20 13 29 -5 3 -8 19 -5 36 3 23
1 28 -10 24 -8 -3 -14 0 -14 7 0 8 -4 6 -10 -3 -5 -8 -10 -10 -10 -3 0 6 -9 9
-22 5 -16 -4 -19 -2 -14 9 4 8 0 5 -8 -5 -9 -11 -16 -14 -16 -8 0 7 -5 12 -11
12 -5 0 -8 -3 -6 -7 3 -5 -7 -8 -23 -8 -20 0 -26 4 -23 15 4 12 2 11 -9 -2
-11 -12 -18 -14 -32 -6 -15 8 -17 8 -10 -3 5 -9 -2 -7 -20 5 -16 10 -26 14
-22 8 3 -5 -3 -12 -14 -15 -11 -3 -18 -1 -14 4 3 5 0 9 -5 9 -6 0 -11 -4 -11
-9 0 -4 -12 -6 -27 -4 -37 5 -43 6 -80 0 -18 -2 -30 0 -27 4 3 5 -2 9 -11 9
-9 0 -13 -5 -9 -11 5 -8 2 -9 -12 -1 -11 6 -27 7 -41 1 -14 -5 -25 -4 -29 3
-5 7 -3 8 6 3 8 -5 11 -4 6 3 -4 7 -15 6 -34 -4 -31 -15 -65 -12 -90 8 -10 8
-13 9 -9 1 11 -18 -26 -21 -47 -4 -11 9 -16 11 -13 5 8 -14 -30 -26 -39 -13
-3 5 -10 9 -15 9 -6 0 -7 -5 -3 -11 5 -8 2 -9 -12 -1 -11 6 -27 7 -41 1 -14
-5 -25 -4 -29 3 -5 7 -3 8 6 3 8 -5 11 -4 6 3 -4 7 -15 6 -34 -4 -31 -15 -65
-12 -90 8 -10 8 -13 9 -9 1 11 -18 -26 -21 -47 -4 -11 9 -16 11 -13 5 8 -13
-30 -27 -38 -14 -3 4 -15 6 -27 2 -16 -4 -19 -2 -14 9 4 8 0 5 -8 -5 -9 -11
-16 -14 -16 -8 0 7 -5 12 -11 12 -5 0 -8 -4 -5 -9 3 -4 -6 -6 -19 -3 -14 2
-22 9 -19 16 3 6 -2 2 -10 -8 -9 -11 -16 -14 -16 -8 0 7 -5 12 -11 12 -5 0 -8
-3 -6 -7 6 -9 -50 -9 -59 0 -3 3 -18 1 -32 -4 -22 -8 -23 -8 -12 6 11 13 10
14 -4 9 -9 -3 -16 -11 -16 -16 0 -6 -11 -3 -24 5 -23 15 -24 15 -19 -6 5 -22
5 -22 -11 -2 -10 11 -14 14 -10 6 5 -11 3 -13 -10 -8 -9 4 -15 3 -11 -2 3 -5
2 -11 -2 -14 -5 -2 -1 -2 7 0 8 2 4 -6 -10 -17 -18 -14 -20 -18 -6 -14 18 7
18 6 2 -19 -16 -24 -16 -26 1 -36 17 -10 17 -10 -1 -11 -14 0 -16 -3 -7 -13 8
-10 7 -17 -1 -25 -8 -8 -7 -13 6 -18 13 -5 15 -9 5 -15 -10 -6 -10 -11 -1 -22
12 -14 6 -51 -7 -43 -5 4 -6 -50 -1 -64 1 -3 1 -9 0 -15 -8 -36 -4 -78 8 -83
11 -4 11 -6 1 -13 -10 -6 -10 -11 1 -23 11 -14 10 -16 -3 -10 -19 7 -17 -24 2
-36 11 -6 11 -8 0 -12 -11 -4 -12 -8 -1 -20 12 -15 7 -52 -7 -44 -5 4 -6 -50
-1 -64 1 -3 1 -9 0 -15 -8 -36 -4 -78 8 -83 11 -4 11 -6 1 -13 -10 -6 -10 -11
1 -23 11 -14 10 -16 -3 -10 -19 7 -17 -24 2 -36 11 -6 11 -8 1 -12 -10 -3 -10
-9 0 -28 12 -23 12 -24 -4 -11 -15 13 -16 12 -7 -11 5 -15 5 -30 0 -41 -8 -13
-6 -17 6 -17 8 0 15 -5 15 -11 0 -8 6 -7 18 2 13 10 12 8 -3 -10 -11 -14 -15
-21 -9 -18 7 4 14 0 18 -8 3 -8 12 -12 21 -9 8 3 12 10 9 15 -6 10 25 0 43
-13 8 -7 10 -3 6 14 -3 13 -1 19 4 13 11 -14 33 -17 33 -5 0 6 -6 10 -12 10
-10 0 -9 3 1 9 7 5 10 14 7 20 -4 6 -2 11 5 11 8 0 8 4 -1 15 -9 10 -9 15 -1
15 15 0 14 27 -1 33 -7 3 -4 6 6 6 20 1 20 1 0 16 -10 8 -14 15 -8 15 12 0 12
29 0 48 -4 7 -2 12 5 12 8 0 8 4 -1 15 -9 10 -9 15 -1 15 15 0 14 27 -1 33 -7
3 -4 6 6 6 20 1 20 1 0 16 -10 8 -14 15 -8 15 12 0 11 41 -2 61 -5 8 -3 9 5 4
10 -6 11 -3 2 14 -8 13 -8 21 -2 21 7 0 7 9 1 25 -7 19 -6 23 6 18 10 -4 12 0
8 11 -3 9 -11 13 -18 9 -6 -4 -4 2 4 12 9 11 10 16 3 11 -7 -4 -13 -2 -13 3 0
6 5 11 10 11 7 0 7 6 2 18 -5 9 -6 26 -2 37 4 11 3 28 -2 39 -6 11 -6 16 -1
13 5 -4 10 0 10 8 0 8 -4 12 -9 9 -4 -3 -8 -1 -8 5 0 5 6 11 13 14 9 3 9 7 -2
20 -10 13 -10 17 -1 17 10 0 10 3 0 15 -9 10 -9 15 -1 15 15 0 14 27 -1 33 -7
3 -4 6 6 6 20 1 20 1 0 16 -10 8 -14 15 -7 15 6 0 9 9 6 19 -3 12 4 29 17 43
13 13 19 17 15 9 -6 -10 -4 -13 7 -9 8 4 21 2 28 -2 8 -5 21 -5 31 0 9 5 19 6
23 2 9 -9 66 -10 60 -1 -8 13 29 19 43 7 11 -9 16 -9 23 1 6 11 8 11 12 1 2
-8 12 -14 22 -16 12 -2 16 2 12 13 -6 13 -4 14 10 3 13 -11 17 -11 24 -1 6 11
8 11 12 1 2 -8 12 -14 22 -16 12 -2 16 2 12 13 -6 13 -4 14 10 3 13 -11 17
-11 24 -1 6 11 8 11 12 1 2 -8 12 -14 22 -16 12 -2 16 2 12 13 -6 13 -4 14 10
3 13 -11 17 -11 24 -1 6 11 8 11 12 1 2 -8 12 -14 22 -16 12 -2 16 2 12 13 -6
13 -4 14 10 3 13 -11 17 -11 24 -1 6 11 8 11 12 1 2 -8 12 -14 22 -16 12 -2
16 2 12 13 -6 13 -4 14 10 3 13 -11 17 -11 24 -1 6 11 8 11 12 1 2 -8 12 -14
22 -16 12 -2 16 2 12 13 -6 13 -4 14 10 3 13 -11 17 -11 24 -1 6 11 8 11 12 1
2 -8 12 -14 22 -16 12 -2 16 2 12 13 -6 13 -4 14 10 3 12 -11 17 -11 23 -1 6
10 10 9 15 -4 5 -13 10 -15 19 -6 10 8 17 7 25 -1 9 -9 12 -7 12 7 1 19 1 19
11 2 7 -13 15 -15 28 -8 10 6 23 6 31 1 8 -5 21 -5 31 0 9 5 19 6 23 3 8 -8
65 -10 60 -1 -9 15 22 14 40 -1 18 -15 19 -15 12 3 -5 15 -4 17 7 8 7 -6 24
-9 38 -6 20 5 21 4 9 -6 -12 -10 -11 -11 8 -7 17 4 21 2 14 -6 -4 -7 -9 -25
-10 -42 -1 -23 1 -26 8 -15 6 9 10 10 10 3 0 -6 -5 -15 -10 -18 -6 -4 -8 -11
-5 -16 4 -5 0 -9 -7 -9 -8 0 -6 -5 5 -11 14 -8 16 -14 6 -25 -9 -11 -9 -14 2
-14 8 0 6 -5 -6 -13 -14 -11 -15 -16 -5 -22 9 -6 11 -4 5 5 -5 9 -4 11 4 6 8
-6 9 -12 2 -20 -6 -7 -8 -16 -4 -19 3 -4 0 -7 -8 -7 -10 -1 -9 -4 4 -11 14 -8
16 -14 6 -25 -9 -11 -9 -14 2 -14 8 0 6 -5 -6 -13 -14 -11 -15 -16 -5 -22 9
-6 11 -4 5 5 -5 9 -4 11 4 6 8 -6 9 -12 2 -20 -7 -9 -7 -17 2 -26 10 -10 8
-12 -8 -6 -15 6 -17 4 -8 -5 6 -6 9 -18 6 -27 -5 -11 -3 -13 8 -7 11 7 12 6 2
-7 -7 -8 -10 -18 -6 -21 3 -4 0 -7 -8 -7 -10 -1 -9 -4 4 -11 14 -8 16 -14 6
-25 -9 -11 -9 -14 2 -14 8 0 6 -5 -6 -13 -14 -11 -15 -16 -5 -22 9 -6 11 -4 5
5 -5 9 -4 11 4 6 8 -6 9 -12 2 -20 -6 -7 -8 -16 -4 -19 3 -4 0 -7 -7 -7 -9 0
-7 -5 6 -15 19 -14 18 -14 -3 -15 -13 0 -23 -6 -23 -12 0 -9 -4 -8 -10 2 -6
10 -10 11 -10 3 0 -7 -5 -13 -11 -13 -5 0 -8 4 -5 8 3 5 -2 9 -10 9 -8 0 -13
-5 -11 -12 3 -6 -3 -11 -13 -11 -10 0 -17 4 -14 7 2 4 0 10 -6 14 -5 3 -10 -1
-10 -9 0 -8 -5 -18 -12 -22 -7 -5 -9 -2 -4 7 4 8 1 6 -7 -3 -8 -10 -17 -15
-21 -11 -3 4 -13 -3 -22 -15 -9 -13 -20 -19 -31 -15 -10 4 -14 2 -9 -5 3 -6 1
-14 -5 -18 -7 -4 -9 -3 -5 4 4 6 -1 10 -13 9 -12 -1 -22 -11 -26 -24 -3 -15
-10 -21 -17 -17 -8 5 -9 1 -4 -12 4 -10 4 -15 0 -12 -10 11 -45 -12 -38 -24 5
-8 1 -9 -12 -4 -15 6 -16 5 -7 -5 10 -10 9 -16 -3 -30 -9 -10 -21 -16 -28 -13
-7 3 -12 -5 -13 -18 -2 -18 0 -20 8 -8 9 13 10 13 6 0 -2 -8 -11 -14 -19 -14
-10 1 -14 -5 -11 -17 3 -11 0 -19 -6 -19 -7 0 -9 5 -5 12 4 7 3 8 -4 4 -6 -4
-9 -13 -6 -20 3 -8 1 -17 -5 -20 -6 -4 -8 -13 -4 -21 5 -14 -7 -20 -30 -16 -5
1 -6 -3 -2 -9 4 -7 12 -7 26 0 11 6 19 7 19 1 0 -5 -7 -12 -16 -15 -8 -3 -13
-10 -9 -15 3 -5 0 -13 -6 -17 -7 -4 -9 -3 -5 4 3 6 2 13 -3 16 -10 7 -9 -20 2
-30 3 -4 2 -16 -4 -27 -8 -15 -8 -18 1 -12 9 5 10 1 5 -15 -12 -37 -13 -70 -2
-70 6 0 7 -3 4 -7 -4 -3 -1 -13 6 -21 8 -10 8 -13 1 -9 -7 4 -14 0 -18 -8 -3
-8 0 -15 6 -15 6 0 5 -6 -3 -17 -12 -15 -12 -16 1 -8 13 8 13 7 1 -8 -13 -16
-8 -22 14 -17 5 1 1 -8 -9 -19 -11 -12 -14 -21 -8 -21 7 0 12 -5 12 -11 0 -5
-6 -7 -12 -3 -9 5 -9 3 1 -9 11 -14 11 -18 -3 -23 -9 -3 -14 -10 -11 -14 6
-10 -15 -8 -32 3 -6 4 -15 3 -18 -3 -5 -8 -11 -8 -20 0 -10 8 -15 8 -20 0 -5
-8 -10 -8 -20 0 -10 8 -16 7 -25 -7 -8 -13 -10 -13 -7 -2 3 9 -1 16 -9 16 -8
0 -14 -4 -14 -9 0 -4 -5 -8 -11 -8 -5 0 -7 6 -3 13 4 7 2 7 -7 -2 -11 -10 -11
-15 -1 -18 6 -3 12 -9 12 -14 0 -11 -22 -7 -33 6 -5 6 -5 -1 -2 -14 5 -16 4
-21 -4 -17 -8 5 -8 0 -1 -20 9 -23 8 -25 -7 -20 -14 6 -14 4 3 -15 10 -12 13
-19 6 -15 -10 6 -11 1 -6 -18 4 -16 1 -33 -7 -43 -8 -9 -9 -14 -3 -10 6 3 21
-4 35 -16 20 -18 36 -22 96 -22 39 0 75 3 79 8 4 4 12 7 18 7 6 0 4 -5 -4 -10
-13 -8 -12 -10 4 -10 12 0 16 -5 12 -15 -3 -8 0 -15 6 -15 6 0 8 -3 5 -7 -4
-3 -1 -13 6 -21 8 -10 8 -13 1 -9 -7 4 -14 0 -18 -8 -3 -8 0 -15 6 -15 6 0 5
-6 -3 -17 -12 -15 -12 -16 1 -8 13 8 13 7 1 -8 -13 -16 -8 -22 14 -17 5 1 1
-8 -9 -19 -11 -12 -14 -21 -8 -21 7 0 12 -5 12 -11 0 -5 -6 -7 -12 -3 -10 6
-10 5 -1 -7 10 -12 10 -18 0 -29 -10 -10 -9 -11 3 -5 13 8 13 7 1 -8 -13 -16
-8 -22 14 -17 5 1 1 -8 -9 -19 -11 -12 -14 -21 -8 -21 7 0 12 -5 12 -11 0 -5
-6 -7 -12 -3 -10 6 -10 4 0 -8 9 -12 10 -18 2 -23 -8 -5 -6 -14 7 -28 10 -11
13 -17 7 -14 -7 4 -14 0 -18 -8 -3 -8 -1 -15 5 -15 6 0 7 -6 2 -12 -9 -16 -14
-42 -6 -34 9 8 32 -26 33 -46 0 -10 5 -18 11 -18 6 0 9 -8 7 -18 -4 -15 0 -18
18 -16 13 1 22 -2 18 -7 -3 -5 -11 -7 -17 -3 -7 3 -4 -1 6 -9 18 -15 22 -36
10 -53 -5 -5 1 0 11 11 l19 20 -5 -22 c-3 -12 -1 -24 5 -26 15 -5 19 -49 5
-59 -10 -6 -10 -8 -1 -8 7 0 17 8 23 18 9 14 11 14 7 1 -3 -9 0 -22 6 -29 10
-10 8 -12 -6 -7 -11 4 -16 3 -12 -3 3 -6 13 -10 20 -10 9 0 12 -6 8 -17 -4
-10 -2 -14 4 -10 5 3 10 0 10 -8 0 -8 -4 -12 -8 -9 -4 2 -11 -1 -15 -7 -4 -8
-3 -9 4 -5 7 4 12 1 12 -8 0 -9 5 -16 11 -16 5 0 7 4 4 10 -3 6 -1 10 5 10 7
0 10 -6 7 -14 -3 -7 0 -19 6 -26 9 -10 9 -11 0 -6 -8 5 -13 1 -13 -9 0 -9 4
-13 10 -10 6 4 9 -4 7 -17 -1 -13 3 -22 10 -21 13 3 12 -22 -2 -34 -4 -4 -5
-3 -1 4 7 14 -10 28 -18 14 -9 -14 20 -32 40 -25 18 6 18 6 0 -8 -15 -12 -16
-17 -6 -23 9 -6 11 -4 5 5 -5 8 -4 11 3 6 6 -4 9 -13 6 -21 -4 -8 -10 -12 -15
-9 -5 3 -6 -2 -3 -10 3 -9 11 -16 16 -16 6 0 5 -6 -2 -15 -9 -11 -9 -15 -1
-15 7 0 9 -5 4 -12 -10 -17 -12 -59 -2 -52 4 2 6 14 4 26 -3 11 -1 17 3 14 4
-4 7 -11 7 -14 0 -4 4 -13 9 -21 6 -10 5 -12 -2 -7 -8 5 -12 0 -12 -13 0 -11
8 -25 18 -30 9 -6 11 -11 5 -11 -7 0 -13 -4 -13 -10 0 -5 8 -7 18 -4 9 3 5 -2
-10 -11 -32 -18 -39 -31 -9 -15 13 7 22 7 26 0 3 -5 -1 -10 -10 -10 -10 0 -13
-4 -8 -12 4 -7 6 -22 5 -33 -2 -17 -1 -17 7 -5 6 8 11 10 11 5 0 -6 -5 -16
-12 -23 -7 -7 -8 -12 -3 -12 4 0 0 -10 -11 -22 -10 -13 -12 -17 -4 -10 18 16
27 15 27 -3 0 -8 -4 -12 -9 -9 -4 3 -8 0 -8 -5 0 -6 5 -11 12 -11 6 0 3 -10
-8 -22 -10 -12 -14 -18 -7 -15 6 4 14 3 18 -3 3 -5 0 -10 -7 -10 -10 0 -10 -2
1 -9 9 -6 10 -11 2 -15 -7 -5 -8 -13 -2 -24 6 -11 5 -25 -1 -37 -8 -14 -8 -20
1 -23 9 -3 9 -7 0 -19 -10 -12 -10 -16 2 -24 12 -8 6 -13 -13 -10 -4 0 -5 -6
-2 -14 4 -8 10 -12 15 -9 5 3 6 -2 3 -10 -3 -9 -10 -16 -16 -16 -5 0 -6 -5 -3
-10 4 -6 10 -8 15 -5 4 3 7 -3 6 -12 -2 -9 -9 -19 -17 -21 -11 -3 -12 -2 -1 6
11 8 11 10 0 14 -9 4 -14 -4 -15 -24 0 -20 2 -26 8 -17 4 7 11 11 14 7 4 -3
-3 -15 -15 -26 -16 -15 -18 -22 -9 -27 8 -5 10 -4 5 3 -4 7 -2 12 3 12 6 0 11
-4 11 -9 0 -14 -26 -32 -35 -23 -5 4 -5 1 -1 -6 4 -7 11 -10 16 -7 5 3 12 0
16 -6 4 -8 3 -9 -4 -5 -7 4 -12 2 -12 -4 0 -6 -4 -9 -8 -6 -10 6 -9 -24 1 -41
4 -6 3 -14 -3 -18 -5 -3 -10 -11 -10 -16 0 -6 6 -7 13 -3 9 6 9 4 -1 -8 -10
-13 -10 -17 0 -22 7 -3 2 -4 -11 -2 -18 4 -21 2 -12 -7 17 -17 13 -31 -4 -17
-13 11 -14 10 -9 -4 3 -9 10 -16 15 -16 5 0 9 -5 9 -11 0 -5 -3 -8 -7 -6 -5 3
-15 -2 -23 -11 -13 -14 -12 -15 5 -8 18 7 18 6 -1 -15 -10 -12 -13 -19 -5 -14
9 5 12 3 9 -6 -3 -8 -12 -13 -19 -11 -8 1 -5 -5 6 -14 20 -16 20 -16 -2 -11
-16 4 -20 1 -16 -11 4 -10 2 -13 -5 -8 -6 3 -13 2 -16 -3 -7 -11 13 -9 32 2 7
5 12 4 12 -2 0 -6 -5 -11 -11 -11 -5 0 -8 -4 -5 -8 3 -5 -4 -21 -15 -38 -22
-33 -25 -49 -6 -38 7 5 7 1 -3 -12 -8 -10 -16 -21 -18 -24 -2 -3 -2 3 0 12 1
9 -1 17 -7 17 -5 0 -9 -7 -7 -15 2 -9 -3 -23 -10 -31 -10 -13 -10 -17 0 -20 6
-3 12 -9 12 -14 0 -4 -8 -5 -17 -2 -15 6 -16 4 -5 -9 10 -13 10 -18 1 -24 -8
-4 -9 -3 -5 4 4 7 2 12 -3 12 -6 0 -11 -5 -11 -11 0 -5 -4 -8 -8 -5 -5 3 -9
-1 -9 -9 0 -8 4 -12 9 -9 4 3 8 0 8 -5 0 -6 -5 -11 -11 -11 -6 0 -9 -7 -6 -14
4 -10 1 -13 -9 -9 -9 3 -14 -1 -14 -12 0 -10 5 -13 12 -9 7 4 8 3 4 -5 -4 -6
-12 -8 -18 -5 -7 5 -9 2 -6 -8 4 -8 2 -21 -4 -29 -8 -11 -9 -11 -5 2 3 9 -1
16 -8 16 -8 0 -12 -10 -10 -24 2 -18 -1 -23 -13 -18 -12 4 -12 3 -3 -9 7 -9 8
-17 2 -20 -10 -7 -9 -31 2 -42 3 -4 2 -15 -4 -26 -7 -13 -7 -23 0 -32 7 -9 7
-16 -1 -24 -9 -9 -9 -12 1 -12 11 0 11 -3 1 -15 -9 -11 -9 -15 -1 -15 9 0 9
-5 0 -21 -8 -17 -8 -20 1 -14 9 5 10 1 5 -15 -12 -37 -13 -70 -2 -70 6 0 7 -3
4 -7 -4 -3 -1 -13 6 -21 8 -10 8 -13 1 -9 -7 4 -14 0 -18 -8 -3 -8 0 -15 6
-15 6 0 5 -6 -3 -17 -12 -15 -12 -16 1 -8 13 8 13 7 1 -8 -13 -16 -8 -22 14
-17 5 1 1 -8 -9 -19 -11 -12 -14 -21 -8 -21 7 0 12 -5 12 -11 0 -5 -6 -7 -12
-3 -10 6 -10 5 -1 -7 10 -12 10 -18 0 -29 -10 -10 -9 -11 3 -5 13 8 13 7 1 -8
-13 -16 -8 -22 14 -17 5 1 1 -8 -9 -19 -11 -12 -14 -21 -8 -21 7 0 12 -5 12
-11 0 -5 -6 -7 -12 -3 -10 6 -10 5 -1 -8 7 -8 10 -18 6 -22 -10 -10 -11 -46
-1 -46 5 0 4 -10 -3 -21 -8 -17 -8 -20 1 -14 9 5 10 1 5 -15 -12 -37 -13 -70
-2 -70 6 0 7 -3 4 -7 -4 -3 -1 -13 6 -21 8 -10 8 -13 1 -9 -7 4 -14 0 -18 -8
-3 -8 0 -15 6 -15 6 0 5 -6 -3 -17 -12 -15 -12 -16 1 -8 13 8 13 7 1 -8 -13
-16 -8 -22 13 -18 5 1 4 -4 -2 -12 -7 -8 -8 -18 -4 -22 4 -5 1 -4 -7 0 -11 6
-13 4 -8 -9 6 -14 4 -15 -14 -5 -15 8 -19 8 -15 0 4 -6 2 -11 -3 -11 -6 0 -11
6 -11 13 0 9 -3 8 -9 -2 -7 -11 -9 -11 -14 0 -4 9 -8 11 -14 4 -10 -13 -63
-14 -63 -1 0 5 -7 3 -16 -5 -13 -10 -17 -10 -25 2 -6 9 -12 10 -16 4 -10 -13
-63 -14 -63 -1 0 5 -7 3 -15 -4 -8 -7 -15 -8 -15 -3 0 5 -7 10 -15 10 -9 0
-14 -6 -11 -13 3 -8 0 -11 -9 -7 -8 3 -13 9 -10 13 6 10 -15 8 -32 -3 -8 -5
-13 -3 -13 5 0 9 -3 9 -10 -2 -6 -10 -10 -11 -10 -2 0 6 -5 12 -11 12 -5 0 -7
-6 -3 -12 6 -10 5 -10 -7 -1 -12 10 -18 10 -27 1 -9 -9 -12 -9 -12 2 0 13 -2
13 -10 0 -5 -8 -10 -10 -10 -4 0 6 -7 11 -15 11 -8 0 -12 -4 -9 -9 3 -4 0 -8
-5 -8 -6 0 -11 6 -11 13 0 9 -3 8 -9 -2 -7 -11 -9 -11 -14 0 -4 10 -8 11 -14
3 -9 -13 -43 -15 -43 -2 0 4 -5 8 -12 8 -6 0 -9 -3 -5 -6 3 -3 2 -16 -3 -28
-4 -13 -4 -29 1 -39 7 -12 6 -17 -3 -17 -9 0 -9 -3 2 -10 8 -5 10 -10 4 -10
-9 0 -10 -10 -5 -52 1 -3 10 -4 21 -1 12 3 20 0 20 -7 0 -8 4 -9 13 -3 14 11
27 11 46 -1 10 -6 12 -5 7 2 -4 7 -2 12 3 12 6 0 11 -5 11 -11 0 -6 5 -7 13
-2 6 4 54 8 105 8 69 0 91 -3 88 -12 -3 -7 0 -15 6 -19 6 -4 8 -3 5 3 -4 6 0
16 8 23 12 10 15 10 15 -1 0 -11 2 -11 10 1 6 10 10 11 10 3 0 -7 5 -13 11
-13 5 0 7 5 3 11 -5 8 -1 8 14 0 14 -7 23 -8 27 -1 4 7 13 6 27 -1 12 -6 18
-7 14 -1 -3 5 1 13 10 16 10 4 13 2 8 -6 -5 -7 -2 -9 8 -5 9 3 21 0 28 -6 9
-8 11 -8 7 -1 -8 14 41 16 49 2 4 -6 9 -7 13 -1 8 13 74 26 66 13 -3 -6 -1
-10 6 -10 6 0 9 8 6 19 -3 14 -1 18 9 14 8 -3 14 -13 15 -22 0 -12 2 -11 9 5
6 16 15 19 44 16 22 -3 33 -8 29 -15 -3 -6 -1 -7 6 -3 6 4 9 12 6 17 -4 5 -3
9 2 10 4 0 19 2 33 3 14 2 28 -2 32 -8 4 -7 16 -2 33 14 15 14 25 19 23 11 -2
-9 8 -14 33 -15 25 -1 35 3 32 11 -3 7 -10 10 -16 6 -5 -3 -7 -2 -4 4 3 5 20
9 37 8 16 -1 30 3 30 9 0 7 3 7 8 1 4 -5 14 -16 23 -22 13 -10 16 -10 16 2 0
8 -4 12 -9 9 -4 -3 -8 0 -8 5 0 12 13 14 24 4 10 -10 46 -11 39 0 -3 5 7 6 26
2 21 -4 31 -3 31 5 0 7 -7 10 -16 6 -9 -3 -12 -2 -9 5 4 6 13 8 21 5 7 -3 18
3 23 12 6 9 11 12 11 7 0 -6 -5 -16 -11 -22 -8 -8 -7 -13 2 -18 7 -5 10 -4 7
1 -3 5 4 18 15 29 11 11 17 15 14 9 -4 -7 0 -15 9 -18 11 -4 15 -2 11 7 -3 8
1 14 9 14 7 0 10 -5 7 -11 -4 -6 0 -5 9 2 13 10 17 10 21 0 4 -10 6 -10 6 0 1
14 38 17 43 3 2 -5 10 -2 18 7 13 14 12 15 -3 9 -9 -3 -18 -3 -21 2 -4 6 28
11 91 14 7 0 10 3 8 7 -2 3 5 11 16 18 11 7 19 8 19 2 0 -5 -4 -10 -10 -10 -5
0 -10 -4 -10 -8 0 -4 8 -8 19 -8 11 0 17 5 14 14 -3 7 -1 12 5 10 5 -2 10 2
10 7 0 6 -4 9 -10 7 -5 -1 -7 2 -3 8 10 17 35 -8 29 -28 -3 -9 2 -5 10 9 15
26 39 31 65 14 10 -6 12 -4 6 5 -6 10 -1 12 19 8 20 -4 24 -2 16 7 -8 10 -7
15 1 21 8 4 9 3 5 -4 -4 -7 -3 -12 3 -12 5 0 12 8 14 18 4 15 5 14 6 -2 1 -20
1 -20 16 0 10 14 14 15 15 5 0 -11 4 -9 15 5 10 13 13 14 10 3 -4 -9 0 -16 9
-16 8 0 12 6 9 14 -4 9 3 16 16 20 11 3 19 9 16 12 -2 4 2 8 10 8 11 0 12 -4
3 -14 -6 -7 -8 -16 -4 -20 3 -3 6 -1 6 5 0 7 7 12 15 12 8 0 15 5 15 10 0 6 6
10 13 9 27 -3 37 2 37 19 1 16 1 16 14 0 12 -16 13 -16 26 3 16 21 40 25 57 8
9 -9 11 -8 9 4 -1 9 -6 20 -11 24 -4 4 -5 2 0 -6 6 -10 4 -12 -4 -6 -9 5 -10
10 -2 18 8 8 14 8 22 0 12 -12 42 -6 35 6 -2 3 3 13 12 21 14 13 15 12 9 -4
-5 -12 -3 -16 5 -13 7 2 12 11 12 20 -1 9 2 15 6 12 5 -3 12 -1 15 5 5 8 12 7
23 -2 13 -11 14 -11 7 1 -6 11 -4 13 8 8 19 -7 33 9 15 17 -7 3 2 4 20 3 27
-3 37 2 59 29 21 27 30 31 44 24 19 -11 35 2 24 19 -3 5 -1 12 4 15 5 4 13 1
17 -5 5 -8 3 -9 -6 -4 -9 6 -11 4 -5 -5 6 -10 11 -9 21 5 7 10 11 22 8 26 -9
15 4 10 21 -7 15 -16 16 -16 13 2 -2 14 3 19 18 18 15 0 20 4 17 13 -6 16 17
14 30 -2 5 -6 7 -3 4 7 -3 9 1 24 10 35 13 15 14 16 9 1 -3 -12 -1 -15 9 -11
8 3 12 9 9 14 -3 5 4 9 15 9 11 0 23 5 27 12 5 7 3 8 -6 3 -9 -5 -11 -4 -6 4
4 6 13 11 19 10 7 -1 19 -1 27 0 13 1 13 2 0 11 -13 8 -12 10 3 10 9 0 17 5
17 10 0 6 5 10 11 10 5 0 7 -6 3 -12 -6 -10 -5 -10 8 -1 8 7 17 11 20 8 2 -3
5 3 5 13 0 9 -5 21 -11 25 -7 6 -5 7 6 4 18 -6 42 15 30 28 -4 4 4 2 17 -5 19
-10 22 -10 16 1 -6 9 -3 10 10 5 14 -5 15 -4 7 7 -8 9 -8 17 0 27 8 12 9 11 4
-3 -4 -12 -2 -17 6 -14 7 2 12 11 12 20 -1 9 2 15 6 12 11 -7 51 31 42 41 -4
4 0 3 10 -4 11 -9 18 -10 23 -2 3 6 10 8 14 6 4 -3 8 1 8 9 0 13 -3 13 -17 0
-14 -13 -17 -13 -17 0 0 8 4 12 8 9 4 -2 11 1 14 7 4 5 13 8 21 5 8 -3 13 0
11 7 -1 7 4 11 11 9 7 -1 17 9 24 23 6 13 15 22 19 19 5 -3 9 2 9 11 0 9 5 13
10 10 6 -3 10 -1 10 5 0 6 5 8 12 4 8 -5 9 -2 5 9 -4 10 -2 16 5 14 6 -1 13 4
15 11 3 8 -2 10 -14 6 -14 -5 -15 -4 -3 4 9 7 18 8 26 1 9 -7 14 -4 19 10 6
20 17 26 40 21 6 -1 7 2 3 6 -4 4 0 14 10 22 9 8 4 6 -13 -4 -26 -15 -28 -15
-17 -1 8 9 22 19 33 22 10 4 19 14 19 23 1 18 41 52 65 56 8 1 18 6 22 11 5 4
2 5 -6 0 -11 -6 -13 -4 -8 9 4 10 7 22 7 28 0 6 7 7 16 4 13 -5 15 -2 11 14
-4 18 -3 19 9 9 8 -6 17 -9 21 -5 3 3 1 6 -4 6 -15 0 -10 27 7 43 7 6 10 7 7
2 -3 -6 4 -11 15 -11 19 0 19 1 -4 20 -17 15 -19 18 -4 13 14 -6 17 -4 12 9
-5 13 -4 14 7 6 16 -14 28 -6 20 13 -2 8 0 22 7 32 10 16 10 15 6 -7 -3 -14
-3 -19 0 -12 3 6 9 10 14 7 4 -3 6 3 3 14 -3 10 1 22 8 26 8 6 10 4 4 -5 -5
-8 -4 -11 3 -6 6 4 8 14 5 23 -5 12 -3 14 8 8 12 -8 12 -6 0 8 -15 19 -1 23
17 5 9 -9 11 -6 7 10 -3 15 1 22 13 23 10 0 12 3 5 6 -7 2 -13 9 -13 14 0 6 5
7 10 4 9 -6 14 10 13 42 0 7 3 11 7 10 5 -1 16 7 25 18 9 11 14 15 11 8 -4 -6
-1 -15 6 -19 7 -4 10 -3 5 1 -4 5 0 19 8 31 9 15 11 25 5 29 -6 4 -9 1 -8 -6
2 -6 -4 -14 -12 -16 -12 -4 -12 -3 -2 5 8 5 14 13 14 18 0 5 5 8 10 6 6 -2 8
4 4 13 -4 11 -2 14 6 9 8 -5 9 -2 5 10 -4 10 -3 15 3 11 6 -3 10 1 10 10 0 10
5 13 12 9 8 -5 9 -2 5 10 -5 11 -3 15 5 10 7 -5 9 1 6 20 -4 21 -3 24 9 15 11
-10 12 -8 7 6 -5 13 -4 16 4 11 7 -4 12 -2 12 4 0 6 5 8 12 4 7 -4 8 -3 4 4
-4 6 -14 8 -23 5 -13 -5 -13 -3 3 14 10 11 23 18 27 15 5 -2 4 5 -2 16 -16 30
-14 39 4 16 15 -18 15 -18 8 0 -5 15 -3 17 8 11 11 -7 11 -5 -1 10 -14 17 -13
18 2 12 10 -3 20 -1 24 5 4 6 3 8 -3 5 -12 -8 -26 20 -17 34 3 5 10 6 16 3 6
-4 8 1 4 14 -5 13 -1 22 10 26 14 5 15 4 5 -8 -8 -10 -9 -16 -1 -21 6 -4 10
-3 9 2 -1 4 -1 10 1 13 1 3 3 15 6 28 3 17 1 21 -8 16 -10 -6 -10 -5 -1 8 7 8
9 18 5 22 -4 4 0 6 8 4 8 -2 18 -7 22 -13 5 -6 8 -6 8 2 0 7 -8 17 -17 22 -11
6 -13 11 -5 11 7 0 10 4 7 10 -3 5 0 7 8 4 8 -3 14 2 14 11 0 8 -5 15 -11 15
-6 0 -3 5 7 11 9 5 17 15 17 20 0 6 -5 7 -12 3 -7 -4 -8 -3 -4 4 4 7 13 12 21
12 8 0 17 5 21 11 4 8 -1 9 -17 5 -13 -3 -18 -3 -11 0 6 3 9 11 6 16 -4 6 -2
8 4 4 6 -3 13 -2 16 3 4 5 2 12 -4 16 -5 3 -10 12 -10 18 0 7 4 6 11 -3 9 -12
10 -10 6 8 -5 20 -2 22 16 16 21 -6 20 -5 -3 16 -23 20 -23 22 -4 16 19 -6 21
-3 16 19 -3 17 0 25 9 25 11 0 11 2 -1 10 -8 5 -10 10 -4 10 7 0 15 7 18 16 5
14 4 15 -9 4 -9 -8 -15 -8 -15 -2 0 6 5 14 11 18 6 3 9 14 6 24 -3 13 0 17 9
13 9 -3 14 1 14 12 0 9 -4 13 -10 10 -5 -3 -10 -1 -10 4 0 6 10 11 23 12 12 0
16 3 10 6 -7 2 -13 14 -13 24 0 11 5 17 10 14 6 -3 10 -1 10 4 0 6 -5 11 -12
11 -9 0 -9 3 0 12 16 16 15 31 0 22 -10 -6 -10 -5 -1 7 13 16 12 36 -1 57 -4
8 -3 11 5 10 6 -2 14 3 17 11 3 9 0 11 -9 6 -11 -6 -12 -5 -2 5 11 12 16 11
29 -6 16 -20 8 1 -9 24 -8 10 -13 10 -26 0 -12 -10 -12 -8 2 8 9 11 15 23 12
26 -3 2 2 5 10 5 11 0 12 -4 4 -14 -7 -8 -8 -13 -1 -13 5 0 12 6 14 13 7 18
-2 38 -14 31 -6 -4 -5 2 1 15 7 11 9 21 6 21 -3 0 -1 9 5 20 8 15 8 20 -2 20
-9 0 -9 3 0 12 15 15 15 28 1 28 -5 0 -7 -5 -3 -12 5 -7 3 -8 -5 -4 -9 6 -8
13 5 28 14 15 15 21 5 27 -16 10 -16 22 1 32 10 7 10 9 1 9 -7 0 -13 5 -13 11
0 5 5 7 10 4 13 -8 9 17 -4 27 -6 4 -4 13 3 22 11 13 11 16 0 16 -11 0 -11 2
1 10 13 8 12 10 -4 10 -20 0 -20 0 0 15 13 10 15 14 5 15 -8 0 -11 3 -8 7 4 3
2 12 -4 19 -7 8 -6 14 2 20 8 4 9 3 5 -4 -4 -7 -3 -12 3 -12 5 0 9 9 8 20 -1
12 -7 18 -14 16 -7 -3 -15 0 -19 6 -4 6 -3 8 3 5 6 -4 16 0 22 7 8 10 9 16 1
21 -14 9 -13 65 3 65 9 0 9 2 -1 9 -8 4 -13 11 -13 15 3 22 0 36 -10 36 -5 0
-8 -4 -4 -9 3 -5 1 -12 -4 -16 -11 -6 -7 27 5 47 4 7 3 8 -4 4 -7 -4 -12 -2
-12 3 0 6 5 11 11 11 5 0 7 5 4 10 -4 6 -11 8 -16 5 -5 -3 -6 1 -3 10 5 13 9
13 22 3 13 -12 14 -11 2 9 -8 12 -17 20 -20 18 -4 -2 -7 2 -7 10 0 8 3 12 7
10 3 -2 6 5 6 15 0 10 -4 16 -8 14 -4 -3 -8 4 -8 16 0 13 -4 19 -12 14 -7 -4
-8 -3 -4 4 4 6 14 9 24 6 13 -5 14 -4 4 4 -17 12 -17 22 0 33 9 6 9 9 1 9 -7
0 -21 10 -33 22 -19 20 -19 23 -3 40 16 18 16 18 0 12 -20 -7 -23 6 -5 24 9 9
9 12 -2 13 -8 1 -19 1 -23 0 -5 -1 -6 3 -2 8 3 6 11 9 18 7 7 -1 9 -1 4 1 -4
3 -5 9 -2 13 3 5 0 12 -6 16 -8 5 -9 3 -4 -7 5 -8 5 -11 0 -7 -4 4 -15 3 -24
-3 -9 -6 -2 1 14 17 17 16 22 25 13 21 -18 -6 -23 2 -18 32 1 9 -4 12 -15 7
-15 -5 -15 -4 0 16 19 29 19 44 0 28 -9 -7 -18 -10 -22 -6 -3 3 0 6 8 6 11 0
11 2 -1 10 -11 7 -12 10 -2 10 10 0 9 4 -2 16 -9 8 -14 20 -11 25 4 5 1 9 -4
9 -6 0 -11 5 -11 11 0 5 5 7 11 3 8 -5 8 -1 0 14 -6 11 -17 22 -25 25 -9 4
-12 14 -9 26 3 12 1 21 -3 21 -5 0 -15 9 -22 21 -8 12 -9 18 -3 14 6 -3 11 -2
11 3 0 5 -10 14 -22 21 -23 11 -23 12 2 7 l25 -5 -22 16 c-13 9 -23 26 -23 39
0 13 -4 24 -10 24 -5 0 -7 -6 -4 -14 3 -8 1 -16 -4 -20 -11 -6 -9 24 3 43 5 9
4 12 -3 7 -6 -3 -16 3 -22 14 -6 11 -15 18 -20 15 -5 -3 -7 8 -5 25 2 17 0 28
-4 25 -5 -3 -12 2 -15 11 -4 10 -2 13 7 8 9 -5 8 -3 -1 7 -11 12 -14 12 -22
-1 -6 -9 -10 -10 -10 -3 0 6 5 15 10 18 6 3 10 12 9 18 0 9 -2 9 -6 0 -2 -7
-9 -13 -14 -13 -6 0 -7 5 -4 10 3 6 -1 13 -10 16 -9 4 -14 12 -11 19 2 7 -2
24 -9 39 -10 18 -10 28 -3 32 7 5 8 2 3 -6 -5 -8 -4 -11 3 -6 6 4 9 13 6 21
-4 8 -10 12 -15 9 -5 -3 -6 2 -3 10 3 9 11 13 18 9 6 -3 3 3 -7 14 -14 16 -15
23 -6 29 8 5 10 3 4 -6 -5 -9 -4 -11 3 -6 9 5 9 13 2 26 -13 25 -13 33 3 25 6
-4 4 0 -5 7 -15 13 -15 15 0 26 9 7 11 10 5 7 -8 -4 -13 1 -13 12 0 14 -2 15
-9 4 -7 -11 -9 -11 -14 0 -5 12 -7 12 -15 0 -8 -11 -10 -11 -15 0 -4 12 -7 11
-16 -1 -8 -12 -11 -12 -11 -1 0 10 -3 11 -14 2 -10 -8 -16 -8 -25 2 -6 8 -21
13 -33 12 -13 -1 -31 4 -40 13 -15 12 -16 18 -5 30 11 13 9 14 -13 2 -24 -13
-24 -12 -10 5 8 10 10 16 3 12 -6 -4 -14 -3 -18 3 -3 5 2 10 12 10 17 1 17 1
-1 11 -15 9 -16 13 -5 20 10 6 11 9 2 9 -7 0 -13 5 -13 11 0 5 5 7 11 3 8 -5
8 -1 0 14 -14 27 -14 35 2 26 8 -5 8 -2 -2 9 -10 13 -10 17 -1 17 10 0 10 3 1
14 -9 11 -9 15 1 19 10 4 10 6 1 6 -7 1 -13 6 -13 12 0 5 5 7 11 3 8 -5 8 -1
0 14 -13 25 -14 35 -2 28 10 -6 7 40 -5 68 -6 15 -4 17 7 11 12 -8 12 -6 0 8
-11 14 -11 17 0 17 8 0 5 6 -7 15 -19 15 -19 15 0 30 18 13 18 15 2 15 -9 0
-16 6 -15 13 1 6 1 21 0 32 -1 15 -3 17 -10 7 -7 -11 -9 -10 -14 3 -4 9 -3 13
2 10 5 -3 12 -1 16 5 3 5 0 10 -8 10 -8 0 -18 7 -21 16 -6 15 -4 15 11 3 14
-10 16 -10 6 0 -6 7 -10 19 -9 25 2 6 1 8 -1 4 -3 -5 -12 -8 -20 -8 -12 0 -13
3 -4 14 9 11 9 16 0 22 -8 4 -9 3 -5 -4 5 -8 2 -10 -9 -6 -12 5 -13 9 -4 20 9
11 7 14 -9 14 -28 0 -45 24 -37 52 7 23 7 23 -9 3 -9 -11 -16 -15 -15 -10 3
23 -1 48 -7 42 -4 -4 -15 3 -25 14 -11 12 -25 19 -34 16 -8 -4 -14 -3 -14 1 4
26 -1 34 -16 22 -13 -11 -14 -10 -9 4 3 9 11 16 17 16 6 0 7 3 4 6 -4 4 -13 1
-22 -6 -13 -11 -14 -10 -9 5 5 12 4 16 -4 11 -6 -3 -13 -2 -17 4 -4 6 -10 8
-15 5 -4 -3 -10 2 -13 10 -4 10 -1 12 11 9 14 -5 15 -4 2 4 -10 8 -18 8 -27 0
-12 -10 -17 -4 -14 16 1 4 -3 14 -9 21 -8 9 -8 15 0 20 7 4 7 13 -1 27 -8 15
-8 19 0 14 11 -7 11 28 0 39 -10 10 3 65 14 58 6 -4 7 -1 1 8 -12 19 -12 99 1
99 5 0 2 5 -8 11 -14 8 -16 14 -6 25 9 11 8 14 -2 14 -9 0 -10 3 -4 8 12 8 13
22 2 40 -6 8 -2 12 10 12 13 0 15 3 5 8 -8 5 -10 16 -6 27 4 10 3 16 -2 13 -5
-3 -9 7 -10 23 -1 26 0 27 12 11 13 -16 14 -16 8 1 -4 10 -15 22 -25 28 -11 5
-17 14 -14 20 4 5 1 9 -5 9 -6 0 -8 5 -4 13 5 8 2 8 -9 -2 -14 -11 -17 -11
-17 0 0 11 -2 11 -10 -1 -6 -10 -10 -11 -10 -2 0 6 -5 12 -11 12 -5 0 -7 -4
-4 -10 4 -6 -1 -7 -11 -3 -14 5 -16 3 -11 -11 4 -10 3 -15 -3 -11 -6 3 -10 1
-10 -4 0 -6 -5 -10 -12 -9 -15 4 -17 -34 -3 -44 6 -4 1 -8 -10 -8 -19 -1 -19
-1 -2 -11 9 -6 15 -14 12 -20 -4 -5 -8 -27 -11 -50 -4 -32 -2 -39 8 -33 11 6
11 5 0 -8 -10 -13 -10 -17 0 -21 10 -4 10 -6 1 -6 -7 -1 -13 -10 -13 -22 0
-13 4 -18 13 -13 7 5 7 1 -2 -10 -13 -15 -13 -19 0 -27 8 -5 9 -9 3 -9 -13 0
-15 -31 -2 -47 5 -7 5 -14 -2 -18 -6 -3 -8 -11 -5 -16 4 -5 1 -9 -6 -9 -7 0
-4 -7 7 -16 10 -8 13 -13 6 -9 -8 4 -11 -1 -8 -17 2 -13 -1 -32 -7 -43 -9 -18
-8 -18 6 -7 13 11 15 10 10 -7 -3 -12 -10 -21 -15 -21 -5 0 -6 -5 -2 -12 5 -8
0 -9 -14 -6 -12 4 -22 2 -22 -3 0 -6 -9 -5 -21 1 -17 10 -18 14 -7 28 10 12
10 14 1 8 -7 -4 -13 -2 -13 3 0 6 6 11 13 11 8 0 8 3 1 8 -13 9 -13 52 0 52 5
0 2 6 -9 13 -14 11 -15 16 -5 22 9 6 11 4 5 -5 -5 -9 -4 -11 4 -6 9 6 9 11 1
21 -8 10 -8 15 0 20 8 5 8 11 -1 21 -6 8 -8 14 -4 14 4 0 1 8 -6 17 -8 10 -9
14 -2 10 6 -4 14 -3 18 3 3 5 1 10 -6 10 -8 0 -7 5 2 17 10 11 10 14 2 9 -7
-4 -13 -2 -13 3 0 6 5 11 11 11 6 0 3 7 -5 16 -14 14 -14 34 0 34 3 0 2 -4 -1
-10 -3 -5 -1 -10 4 -10 14 0 14 17 0 26 -8 4 -7 9 2 15 8 5 9 9 4 9 -6 0 -12
12 -13 28 -1 21 0 23 8 12 6 -9 10 -10 10 -3 0 6 -5 15 -11 19 -8 4 -7 9 2 15
8 5 9 9 4 9 -13 0 -18 49 -7 64 10 13 9 27 -2 44 -4 8 -2 20 6 29 9 12 9 15 1
9 -7 -4 -13 -2 -13 3 0 6 5 11 11 11 6 0 3 7 -5 16 -14 14 -14 34 0 34 3 0 2
-4 -1 -10 -3 -5 -1 -10 4 -10 14 0 14 17 0 26 -8 4 -7 9 2 15 8 5 9 9 4 9 -6
0 -11 9 -12 20 -1 11 2 18 6 16 4 -3 8 1 8 9 0 8 -4 12 -9 9 -10 -6 -6 26 6
45 7 11 5 13 -6 9 -8 -4 -15 0 -15 8 0 7 4 11 8 9 4 -3 9 2 13 10 3 8 1 17 -5
21 -6 4 -5 12 3 22 11 14 10 15 -6 8 -20 -7 -20 -7 0 15 19 22 19 22 0 15 -19
-7 -19 -6 -1 14 18 19 18 20 -1 20 -12 0 -15 3 -7 8 14 9 9 77 -7 97 -15 18
-54 24 -77 12 -16 -9 -16 -9 -4 6 16 20 15 20 -24 1z m105 -33 c7 -14 7 -22 0
-26 -6 -4 -10 -3 -9 2 4 21 -2 34 -13 27 -7 -4 -8 -3 -4 4 10 16 14 15 26 -7z
m-2149 -544 c-10 -9 -11 -8 -5 6 3 10 9 15 12 12 3 -3 0 -11 -7 -18z m174 -6
c-3 -6 -11 -11 -16 -11 -5 0 -4 6 3 14 14 16 24 13 13 -3z m-1041 -36 c3 -8 1
-15 -4 -15 -6 0 -10 7 -10 15 0 8 2 15 4 15 2 0 6 -7 10 -15z m1836 -91 c0 -2
-8 0 -19 5 -10 6 -22 7 -26 3 -5 -4 -5 -1 -1 6 5 9 12 9 27 2 10 -6 19 -13 19
-16z m-2230 0 c0 -8 -5 -12 -10 -9 -6 4 -8 11 -5 16 9 14 15 11 15 -7z m641
-101 c-12 -20 -14 -14 -5 12 4 9 9 14 11 11 3 -2 0 -13 -6 -23z m939 22 c0 -2
-10 -9 -22 -15 -22 -11 -22 -10 -4 4 21 17 26 19 26 11z m-985 -14 c3 -5 2
-12 -3 -15 -5 -3 -9 1 -9 9 0 17 3 19 12 6z m1405 -65 c0 -2 -8 -10 -17 -17
-16 -13 -17 -12 -4 4 13 16 21 21 21 13z m164 -64 c3 -5 -1 -9 -9 -9 -8 0 -12
4 -9 9 3 4 7 8 9 8 2 0 6 -4 9 -8z m176 -48 c0 -8 -19 -13 -24 -6 -3 5 1 9 9
9 8 0 15 -2 15 -3z m480 -204 c0 -5 -2 -10 -4 -10 -3 0 -8 5 -11 10 -3 6 -1
10 4 10 6 0 11 -4 11 -10z m55 -19 c-9 -8 -36 -10 -30 -2 2 4 11 8 20 8 8 0
13 -3 10 -6z m25 -17 c0 -8 -5 -12 -10 -9 -6 4 -8 11 -5 16 9 14 15 11 15 -7z
m-2020 -28 c0 -3 -4 -8 -10 -11 -5 -3 -10 -1 -10 4 0 6 5 11 10 11 6 0 10 -2
10 -4z m880 0 c0 -3 -4 -8 -10 -11 -5 -3 -10 -1 -10 4 0 6 5 11 10 11 6 0 10
-2 10 -4z m1280 -42 c0 -8 -19 -13 -24 -6 -3 5 1 9 9 9 8 0 15 -2 15 -3z m-46
-72 c3 -5 -1 -9 -9 -9 -8 0 -12 4 -9 9 3 4 7 8 9 8 2 0 6 -4 9 -8z m-2354
-132 c0 -5 -5 -10 -11 -10 -5 0 -7 5 -4 10 3 6 8 10 11 10 2 0 4 -4 4 -10z m0
-320 c0 -5 -5 -10 -11 -10 -5 0 -7 5 -4 10 3 6 8 10 11 10 2 0 4 -4 4 -10z
m1678 -125 c-3 -3 -9 2 -12 12 -6 14 -5 15 5 6 7 -7 10 -15 7 -18z m49 -31
c-3 -3 -12 -4 -19 -1 -8 3 -5 6 6 6 11 1 17 -2 13 -5z m-826 -197 c-6 -8 -7
-18 -3 -22 4 -5 1 -5 -6 -1 -10 6 -10 11 -1 22 6 8 14 14 16 14 3 0 0 -6 -6
-13z m2515 -119 c4 -7 3 -8 -4 -4 -7 4 -12 3 -12 -1 0 -5 9 -14 21 -21 17 -11
18 -16 8 -28 -10 -12 -9 -13 4 -9 8 4 18 1 23 -6 4 -7 3 -10 -2 -6 -6 3 -10
-5 -10 -18 0 -13 2 -23 6 -23 18 2 23 -4 10 -12 -12 -8 -10 -10 9 -10 24 0 24
0 5 -15 -18 -14 -18 -14 4 -8 24 6 29 -6 10 -26 -11 -11 -10 -13 5 -8 14 6 17
3 12 -12 -3 -11 1 -24 12 -32 16 -12 17 -12 6 2 -10 13 -10 16 1 16 8 0 13 -7
11 -16 -1 -9 0 -20 3 -26 9 -15 9 -45 0 -39 -4 3 -8 0 -8 -5 0 -12 26 -15 33
-3 2 4 2 1 1 -5 -2 -7 5 -17 14 -22 9 -6 12 -11 5 -11 -6 0 -15 5 -18 10 -3 6
-11 10 -17 10 -6 0 -1 -9 12 -20 13 -11 20 -20 17 -20 -3 0 -2 -13 3 -30 6
-20 5 -30 -2 -30 -6 0 -8 -3 -5 -6 4 -4 14 -1 23 7 16 13 16 12 4 -11 -13 -24
-12 -24 5 -10 17 14 18 13 10 -5 -11 -28 -7 -76 7 -91 4 -3 4 -12 1 -20 -3 -8
0 -14 7 -14 6 0 8 5 5 10 -3 6 -2 10 3 10 5 0 12 -9 15 -20 3 -13 1 -18 -6
-13 -7 3 -3 -4 8 -17 11 -13 15 -20 9 -17 -7 4 -15 0 -18 -9 -3 -8 -2 -12 4
-9 9 6 12 -1 9 -22 -1 -5 -5 -7 -11 -5 -5 1 -7 -2 -4 -7 3 -5 16 -7 29 -4 17
4 19 2 8 -5 -16 -11 -25 -46 -10 -36 13 8 11 -10 -3 -26 -11 -12 -10 -12 5 -1
11 9 15 21 12 32 -4 11 -2 19 3 19 11 0 9 -60 -1 -77 -4 -6 -1 -16 7 -22 15
-13 10 -61 -8 -62 -6 0 3 -7 19 -14 19 -9 24 -14 13 -15 -10 0 -18 -5 -18 -11
0 -6 6 -9 13 -6 8 3 14 -1 14 -9 0 -7 -5 -10 -11 -7 -6 4 -2 -3 8 -15 21 -24
16 -27 -17 -11 -20 9 -20 9 -4 -4 17 -14 25 -43 9 -33 -5 3 -9 -2 -9 -10 0
-10 4 -11 11 -4 14 14 23 13 23 -5 0 -8 -3 -12 -7 -10 -3 2 -6 -5 -6 -16 0
-10 5 -19 10 -19 6 0 5 -5 -2 -12 -9 -9 -7 -15 6 -25 9 -8 12 -12 6 -9 -7 3
-15 -1 -18 -10 -4 -11 -2 -15 8 -11 10 4 13 1 9 -8 -3 -8 -10 -12 -17 -8 -7 4
-7 2 1 -7 9 -9 9 -19 2 -33 -7 -12 -7 -17 -1 -13 5 3 12 -1 16 -9 3 -8 0 -17
-6 -21 -7 -5 -8 -2 -3 6 5 9 4 11 -4 6 -6 -4 -8 -13 -4 -19 11 -18 11 -67 -1
-67 -5 0 -1 -7 10 -16 10 -8 14 -13 7 -10 -6 4 -14 2 -18 -4 -3 -5 -2 -10 4
-10 17 0 5 -33 -15 -41 -16 -6 -16 -8 -2 -8 13 -1 16 -8 13 -31 -2 -17 -1 -28
4 -26 9 6 8 -31 -2 -40 -4 -4 -15 -1 -24 7 -16 12 -15 11 1 -8 10 -13 23 -20
28 -17 5 3 4 -3 -3 -14 -9 -14 -17 -18 -24 -12 -8 7 -12 5 -12 -5 0 -8 4 -12
9 -9 4 3 8 0 8 -6 0 -6 5 -8 13 -4 8 5 8 2 -2 -9 -16 -20 -25 -23 -15 -4 5 9
4 9 -6 0 -11 -10 -11 -15 0 -28 10 -12 10 -15 0 -15 -9 0 -9 -4 1 -17 10 -11
10 -14 2 -9 -7 4 -13 5 -13 2 0 -2 -3 -11 -6 -20 -3 -9 -1 -16 6 -16 6 0 8 5
4 12 -5 7 -3 8 5 4 9 -6 9 -12 -3 -25 -9 -10 -16 -22 -16 -28 0 -6 -3 -13 -7
-16 -5 -2 -2 -2 5 0 15 3 7 -35 -11 -52 -7 -7 -7 -6 -2 4 5 9 4 12 -3 7 -9 -5
-9 -13 -1 -28 10 -18 9 -20 -7 -14 -16 6 -16 5 2 -15 10 -12 14 -19 7 -16 -6
4 -14 3 -18 -3 -3 -5 0 -10 7 -10 7 0 3 -7 -9 -15 -14 -10 -19 -22 -16 -35 3
-11 9 -18 13 -15 5 3 12 0 16 -7 4 -7 4 -10 -1 -6 -4 4 -15 2 -23 -5 -13 -9
-14 -9 -8 0 5 9 2 11 -9 7 -14 -6 -14 -8 2 -20 10 -8 14 -14 8 -13 -22 3 -29
-2 -15 -11 13 -8 13 -11 1 -22 -11 -11 -13 -11 -6 1 6 10 4 12 -4 7 -9 -6 -9
-11 0 -23 11 -12 6 -21 -27 -51 -21 -20 -31 -33 -22 -30 12 5 16 2 15 -12 -1
-14 -5 -16 -19 -9 -14 7 -16 6 -12 -6 4 -8 0 -23 -7 -32 -8 -9 -9 -14 -3 -10
6 3 11 0 11 -8 0 -11 -5 -12 -20 -4 -10 6 -21 8 -25 5 -3 -3 0 -6 6 -6 7 0 12
-7 12 -16 0 -9 5 -12 12 -8 6 4 8 3 5 -4 -4 -5 -17 -8 -30 -5 -22 5 -22 5 -2
-11 16 -13 17 -15 3 -10 -13 4 -18 1 -18 -12 0 -16 -2 -17 -10 -4 -8 12 -10
11 -10 -7 0 -16 -6 -23 -21 -23 -11 0 -18 -4 -14 -10 3 -5 13 -7 23 -4 14 5
14 4 2 -4 -8 -6 -18 -8 -22 -6 -4 3 -8 -2 -8 -10 0 -9 -5 -16 -11 -16 -5 0 -7
-5 -3 -12 5 -7 3 -8 -5 -3 -9 5 -10 10 -2 18 6 6 11 16 11 21 0 6 -5 4 -10 -4
-9 -13 -11 -13 -19 0 -7 10 -6 17 2 22 9 6 9 8 0 8 -7 0 -13 5 -13 11 0 5 5 7
11 3 8 -4 8 0 0 15 -9 16 -9 21 1 22 7 0 4 4 -7 9 -18 8 -18 9 -2 9 14 1 16 5
7 20 -13 26 -13 34 3 25 8 -5 8 -2 -2 9 -12 15 -11 17 5 17 19 1 19 1 0 11
-15 9 -16 13 -5 20 10 6 11 9 2 9 -7 0 -13 5 -13 11 0 5 5 7 11 3 8 -5 8 -1 0
14 -14 27 -14 35 2 26 9 -5 9 -4 0 6 -8 9 -9 19 -3 31 10 17 37 18 78 4 7 -3
15 2 19 10 5 13 7 13 19 -2 13 -16 13 -16 8 -1 -4 13 -1 16 15 13 25 -5 26 -2
4 16 -15 12 -16 12 -8 -1 4 -8 5 -12 1 -8 -11 10 -8 23 7 23 8 0 12 19 12 62
0 33 3 59 8 56 4 -2 7 1 7 6 0 6 -7 11 -15 11 -8 0 -15 6 -15 14 0 11 -7 13
-27 7 -34 -9 -55 -4 -47 12 3 7 0 5 -8 -4 -15 -18 -42 -14 -31 4 4 8 1 7 -9
-1 -13 -11 -16 -9 -20 12 -3 17 -1 23 6 19 6 -3 5 0 -1 8 -7 7 -13 17 -13 22
0 4 6 5 13 1 8 -5 8 -2 -2 9 -10 13 -10 17 -1 17 10 0 10 3 0 15 -10 12 -10
15 1 16 10 0 11 2 2 6 -7 2 -13 9 -13 14 0 6 5 7 11 3 8 -5 8 -1 0 14 -14 25
-14 35 -2 27 10 -6 7 27 -4 45 -3 6 0 10 7 11 10 0 10 2 1 6 -7 2 -13 9 -13
14 0 6 5 7 11 3 8 -5 8 -1 0 14 -14 27 -14 35 2 26 8 -5 8 -2 -2 9 -11 14 -11
17 0 17 10 0 10 3 1 12 -15 15 -16 32 -1 22 8 -4 8 0 0 15 -9 16 -9 21 1 22
10 0 10 2 1 6 -7 2 -13 9 -13 14 0 6 5 7 11 3 8 -5 8 -1 0 14 -14 27 -14 35 2
26 8 -5 8 -2 -2 9 -11 14 -11 17 0 17 9 0 10 3 2 11 -7 7 -8 21 -3 40 5 18 5
29 -1 29 -6 0 -7 5 -3 12 10 17 11 68 0 68 -5 0 -4 6 2 13 7 8 7 18 2 27 -6 9
-3 18 8 27 12 9 13 12 3 11 -7 -2 -16 3 -19 11 -3 10 0 11 9 5 12 -7 12 -5 0
9 -11 14 -11 17 0 17 10 0 10 3 1 12 -9 9 -7 15 6 25 11 9 12 12 2 7 -8 -4
-11 -3 -7 2 10 10 58 14 52 3 -4 -6 25 -5 33 1 8 7 28 4 34 -5 5 -6 8 -4 8 5
0 13 1 13 10 0 9 -13 10 -13 10 0 0 13 1 13 10 0 9 -13 10 -13 10 0 0 12 2 12
9 2 7 -11 9 -11 14 2 4 9 1 16 -6 16 -7 0 -4 5 6 11 9 6 15 15 11 20 -3 5 -7
25 -9 44 -2 24 0 33 8 28 7 -4 4 6 -7 21 -10 16 -13 25 -7 22 6 -4 11 -1 11 7
0 20 -44 39 -59 24 -8 -8 -11 -8 -11 1 0 6 -7 9 -15 6 -8 -4 -12 -11 -8 -18 3
-6 -2 -4 -13 5 -20 16 -59 15 -49 -2 9 -14 0 -11 -23 10 -12 10 -19 21 -15 25
3 3 1 6 -5 6 -10 0 -8 35 3 68 2 6 -1 12 -7 12 -7 0 -7 5 1 14 9 11 10 20 1
35 -8 16 -8 21 2 22 10 0 10 2 1 6 -7 2 -13 9 -13 14 0 6 5 7 11 3 8 -5 8 -1
0 14 -14 27 -14 35 2 26 8 -5 8 -2 -2 9 -11 14 -11 17 0 17 10 0 10 3 1 12
-15 15 -16 32 -1 22 8 -4 8 0 0 15 -9 16 -9 21 1 22 10 0 10 2 1 6 -7 2 -13 9
-13 14 0 6 5 7 11 3 8 -5 8 -1 0 14 -14 27 -14 35 2 26 8 -5 8 -2 -2 9 -10 13
-10 17 -1 17 10 0 10 3 0 15 -10 12 -10 15 1 16 10 0 11 2 2 6 -7 2 -13 9 -13
14 0 6 5 7 11 3 8 -5 8 -1 0 14 -14 27 -14 35 2 26 8 -5 8 -2 -2 9 -10 13 -10
17 -1 17 10 0 10 3 0 15 -10 12 -10 15 1 16 10 0 11 2 2 6 -7 2 -13 9 -13 14
0 6 5 7 11 3 8 -5 8 -1 0 14 -16 30 -14 36 7 21 14 -11 13 -10 -2 9 -13 15
-15 22 -6 22 10 0 9 4 -1 17 -13 15 -12 16 9 11 19 -5 21 -4 11 8 -6 7 -15 12
-19 9 -5 -3 -7 2 -6 11 1 8 9 20 17 25 18 11 16 11 25 -3z m-1542 -54 c3 -8 2
-12 -4 -9 -6 3 -10 10 -10 16 0 14 7 11 14 -7z m1966 -230 c0 -8 -19 -13 -24
-6 -3 5 1 9 9 9 8 0 15 -2 15 -3z m-1730 -188 c0 -2 -12 -11 -27 -20 l-28 -17
24 20 c23 21 31 25 31 17z m1515 -16 c3 -5 1 -10 -4 -10 -6 0 -11 5 -11 10 0
6 2 10 4 10 3 0 8 -4 11 -10z m-2980 -19 c-3 -3 5 -11 17 -18 13 -7 18 -12 12
-13 -7 0 -22 8 -34 18 -18 15 -20 19 -7 19 10 0 15 -3 12 -6z m3009 -14 c4 4
4 -1 0 -12 -5 -11 -9 -14 -12 -7 -2 7 -7 10 -11 8 -4 -3 -8 1 -8 9 0 10 4 12
12 5 7 -5 15 -7 19 -3z m303 -140 c0 -8 -6 -14 -13 -14 -7 0 -10 6 -7 14 3 7
8 13 12 13 4 0 8 -6 8 -13z m40 -261 c0 -15 -21 -16 -34 -1 -4 4 -3 5 4 1 6
-3 14 -2 18 4 8 14 12 13 12 -4z m-2093 -845 c3 -5 -1 -14 -9 -21 -11 -9 -14
-8 -12 9 1 22 12 28 21 12z m1749 -105 c4 -10 1 -13 -8 -9 -8 3 -12 9 -9 14 7
12 11 11 17 -5z m-2533 -490 c0 -2 -7 -7 -16 -10 -8 -3 -12 -2 -9 4 6 10 25
14 25 6z m785 -127 c-4 -5 -12 -9 -18 -8 -9 0 -8 2 1 6 6 2 9 10 6 15 -4 7 -2
8 5 4 6 -4 9 -12 6 -17z m6 -310 c6 -13 7 -19 1 -15 -6 3 -13 0 -16 -6 -3 -7
-3 -2 0 11 5 17 3 21 -6 16 -9 -5 -11 -4 -6 3 10 16 14 15 27 -9z m1400 -142
c-10 -9 -11 -8 -5 6 3 10 9 15 12 12 3 -3 0 -11 -7 -18z m-251 -267 c0 -5 -2
-10 -4 -10 -3 0 -8 5 -11 10 -3 6 -1 10 4 10 6 0 11 -4 11 -10z m-1140 -114
c0 -3 -4 -8 -10 -11 -5 -3 -10 -1 -10 4 0 6 5 11 10 11 6 0 10 -2 10 -4z m890
-92 c0 -8 -19 -13 -24 -6 -3 5 1 9 9 9 8 0 15 -2 15 -3z m-735 -174 c3 -5 1
-10 -4 -10 -6 0 -11 5 -11 10 0 6 2 10 4 10 3 0 8 -4 11 -10z m-78 -35 c0 -8
-4 -12 -9 -9 -4 3 -8 9 -8 15 0 5 4 9 8 9 5 0 9 -7 9 -15z m-1180 -460 c0 -8
-4 -12 -9 -9 -5 3 -6 10 -3 15 9 13 12 11 12 -6z"/>
<path d="M7010 4500 c0 -5 5 -10 11 -10 5 0 7 5 4 10 -3 6 -8 10 -11 10 -2 0
-4 -4 -4 -10z"/>
<path d="M6896 2782 c-3 -5 1 -9 9 -9 8 0 12 4 9 9 -3 4 -7 8 -9 8 -2 0 -6 -4
-9 -8z"/>
<path d="M7065 2761 c-6 -11 9 -23 19 -14 9 9 7 23 -3 23 -6 0 -12 -4 -16 -9z"/>
<path d="M860 6681 c0 -6 4 -13 10 -16 6 -3 7 1 4 9 -7 18 -14 21 -14 7z"/>
<path d="M3470 6498 c0 -6 3 -8 7 -5 3 4 13 1 22 -6 14 -11 14 -10 2 6 -15 20
-31 22 -31 5z"/>
<path d="M4216 6493 c22 -16 34 -17 34 -2 0 5 -4 7 -10 4 -5 -3 -10 -2 -10 3
0 5 -7 9 -16 9 -14 0 -14 -2 2 -14z"/>
<path d="M4835 6410 c3 -5 8 -10 11 -10 2 0 4 5 4 10 0 6 -5 10 -11 10 -5 0
-7 -4 -4 -10z"/>
<path d="M4893 6405 c0 -8 4 -12 9 -9 5 3 6 10 3 15 -9 13 -12 11 -12 -6z"/>
<path d="M3582 6243 c8 -10 14 -10 24 -2 7 6 18 8 23 5 5 -4 12 -3 15 2 3 5
-13 8 -34 8 -31 0 -37 -3 -28 -13z"/>
<path d="M4256 6243 c-6 -14 -5 -15 5 -6 7 7 10 15 7 18 -3 3 -9 -2 -12 -12z"/>
<path d="M4350 6241 c0 -10 19 -25 25 -20 1 2 -3 10 -11 17 -8 7 -14 8 -14 3z"/>
<path d="M4584 6209 c-5 -8 -3 -9 6 -4 7 4 16 2 22 -6 8 -12 9 -12 6 0 -6 20
-24 25 -34 10z"/>
<path d="M2890 6119 c0 -5 5 -7 10 -4 6 3 10 8 10 11 0 2 -4 4 -10 4 -5 0 -10
-5 -10 -11z"/>
<path d="M4950 6121 c0 -6 4 -13 10 -16 6 -3 7 1 4 9 -7 18 -14 21 -14 7z"/>
<path d="M5211 6044 c0 -11 3 -14 6 -6 3 7 2 16 -1 19 -3 4 -6 -2 -5 -13z"/>
<path d="M4010 5920 c0 -5 5 -10 11 -10 5 0 7 5 4 10 -3 6 -8 10 -11 10 -2 0
-4 -4 -4 -10z"/>
<path d="M4330 5920 c0 -5 5 -10 11 -10 5 0 7 5 4 10 -3 6 -8 10 -11 10 -2 0
-4 -4 -4 -10z"/>
<path d="M6745 5810 c-9 -15 4 -30 23 -29 15 1 15 2 0 6 -10 2 -18 9 -18 14 0
6 5 7 12 3 7 -4 8 -3 4 4 -9 15 -13 15 -21 2z"/>
<path d="M3835 5790 c3 -5 8 -10 11 -10 2 0 4 5 4 10 0 6 -5 10 -11 10 -5 0
-7 -4 -4 -10z"/>
<path d="M5830 5736 c0 -2 7 -7 16 -10 8 -3 12 -2 9 4 -6 10 -25 14 -25 6z"/>
<path d="M2266 5718 c3 -5 10 -6 15 -3 13 9 11 12 -6 12 -8 0 -12 -4 -9 -9z"/>
<path d="M3465 5680 c3 -5 8 -10 11 -10 2 0 4 5 4 10 0 6 -5 10 -11 10 -5 0
-7 -4 -4 -10z"/>
<path d="M2430 5560 c0 -5 5 -10 11 -10 5 0 7 5 4 10 -3 6 -8 10 -11 10 -2 0
-4 -4 -4 -10z"/>
<path d="M6860 5560 c0 -5 5 -10 11 -10 5 0 7 5 4 10 -3 6 -8 10 -11 10 -2 0
-4 -4 -4 -10z"/>
<path d="M3465 5360 c3 -5 8 -10 11 -10 2 0 4 5 4 10 0 6 -5 10 -11 10 -5 0
-7 -4 -4 -10z"/>
<path d="M4607 5163 c-4 -3 -7 -11 -7 -17 0 -6 5 -5 12 2 6 6 9 14 7 17 -3 3
-9 2 -12 -2z"/>
<path d="M6905 5160 c3 -5 11 -10 16 -10 6 0 7 5 4 10 -3 6 -11 10 -16 10 -6
0 -7 -4 -4 -10z"/>
<path d="M5630 5100 c0 -13 18 -22 24 -11 3 5 -1 11 -9 15 -8 3 -15 1 -15 -4z"/>
<path d="M4440 5010 c-8 -5 -12 -12 -9 -15 4 -3 12 1 19 10 14 17 11 19 -10 5z"/>
<path d="M553 4885 c0 -8 4 -12 9 -9 5 3 6 10 3 15 -9 13 -12 11 -12 -6z"/>
<path d="M3170 4823 c13 -28 27 -37 27 -18 0 8 -3 13 -5 10 -3 -3 -11 3 -19
13 -13 15 -13 15 -3 -5z"/>
<path d="M596 4805 c4 -8 11 -15 16 -15 6 0 5 6 -2 15 -7 8 -14 15 -16 15 -2
0 -1 -7 2 -15z"/>
<path d="M7205 4740 c21 -24 26 -25 19 -6 -3 8 -13 17 -22 21 -13 5 -13 2 3
-15z"/>
<path d="M7295 4581 c-3 -5 -2 -12 3 -15 5 -3 9 1 9 9 0 17 -3 19 -12 6z"/>
<path d="M3435 4560 c-3 -5 -1 -10 4 -10 6 0 11 5 11 10 0 6 -2 10 -4 10 -3 0
-8 -4 -11 -10z"/>
<path d="M7315 4520 c-3 -5 -1 -10 4 -10 6 0 11 5 11 10 0 6 -2 10 -4 10 -3 0
-8 -4 -11 -10z"/>
<path d="M3571 4436 c-9 -11 -9 -16 1 -22 7 -4 10 -4 6 1 -4 4 -3 14 3 22 6 7
9 13 6 13 -2 0 -10 -6 -16 -14z"/>
<path d="M3663 4335 c0 -8 4 -12 9 -9 5 3 6 10 3 15 -9 13 -12 11 -12 -6z"/>
<path d="M918 4183 c7 -3 16 -2 19 1 4 3 -2 6 -13 5 -11 0 -14 -3 -6 -6z"/>
<path d="M1056 4013 c6 -4 14 -15 17 -23 5 -11 6 -9 4 4 -1 11 -9 21 -17 23
-10 3 -11 2 -4 -4z"/>
<path d="M7495 3900 c3 -5 8 -10 11 -10 2 0 4 5 4 10 0 6 -5 10 -11 10 -5 0
-7 -4 -4 -10z"/>
<path d="M633 3850 c-1 -11 2 -22 6 -24 4 -3 7 4 6 14 -2 27 -10 33 -12 10z"/>
<path d="M5651 3804 c0 -11 3 -14 6 -6 3 7 2 16 -1 19 -3 4 -6 -2 -5 -13z"/>
<path d="M4347 3719 c4 -13 8 -18 11 -10 2 7 -1 18 -6 23 -8 8 -9 4 -5 -13z"/>
<path d="M2550 3679 c0 -5 5 -7 10 -4 6 3 10 8 10 11 0 2 -4 4 -10 4 -5 0 -10
-5 -10 -11z"/>
<path d="M1986 3622 c-2 -4 4 -8 14 -8 10 0 16 4 14 8 -3 4 -9 8 -14 8 -5 0
-11 -4 -14 -8z"/>
<path d="M2830 3586 c0 -4 7 -14 15 -22 8 -9 15 -11 15 -6 0 5 -7 15 -15 22
-8 7 -15 9 -15 6z"/>
<path d="M4275 3520 c3 -5 11 -10 16 -10 6 0 7 5 4 10 -3 6 -11 10 -16 10 -6
0 -7 -4 -4 -10z"/>
<path d="M2996 3441 c-3 -5 1 -11 9 -14 9 -4 12 -1 8 9 -6 16 -10 17 -17 5z"/>
<path d="M5389 3383 c-13 -16 -12 -17 4 -4 9 7 17 15 17 17 0 8 -8 3 -21 -13z"/>
<path d="M4335 3361 c-3 -5 -2 -12 3 -15 5 -3 9 1 9 9 0 17 -3 19 -12 6z"/>
<path d="M7473 3215 c0 -8 4 -12 9 -9 4 3 8 9 8 15 0 5 -4 9 -8 9 -5 0 -9 -7
-9 -15z"/>
<path d="M1915 3181 c-3 -5 -2 -12 3 -15 5 -3 9 1 9 9 0 17 -3 19 -12 6z"/>
<path d="M5390 3160 c-13 -8 -12 -10 3 -10 9 0 17 5 17 10 0 12 -1 12 -20 0z"/>
<path d="M1929 3138 c7 -9 9 -23 5 -30 -6 -10 -4 -11 7 0 11 10 10 15 -6 30
-17 15 -18 15 -6 0z"/>
<path d="M5386 3081 c-3 -5 2 -15 12 -22 15 -12 16 -12 5 2 -7 9 -10 19 -6 22
3 4 4 7 0 7 -3 0 -8 -4 -11 -9z"/>
<path d="M4396 3034 c-8 -21 -8 -24 5 -24 5 0 8 4 5 9 -4 5 -1 11 6 13 8 3 9
6 1 11 -6 4 -14 0 -17 -9z"/>
<path d="M529 2887 c6 -8 9 -16 6 -19 -3 -2 2 -5 10 -5 13 0 13 3 -2 19 -19
21 -31 25 -14 5z"/>
<path d="M5390 2759 c0 -5 5 -7 10 -4 6 3 10 8 10 11 0 2 -4 4 -10 4 -5 0 -10
-5 -10 -11z"/>
<path d="M3362 2711 c-11 -7 -11 -9 0 -14 9 -3 15 1 15 9 0 8 -1 14 -1 14 -1
0 -7 -4 -14 -9z"/>
<path d="M5399 2680 c-2 -13 -6 -29 -9 -32 -9 -12 -5 -38 6 -42 11 -4 12 -1 5
13 -6 10 -7 21 -4 25 8 8 15 46 8 46 -3 0 -6 -4 -6 -10z"/>
<path d="M5390 2580 c13 -24 17 -25 17 -5 0 8 -6 16 -14 19 -11 4 -11 1 -3
-14z"/>
<path d="M4405 2540 c-3 -5 -1 -10 4 -10 6 0 11 5 11 10 0 6 -2 10 -4 10 -3 0
-8 -4 -11 -10z"/>
<path d="M7260 2540 c0 -5 5 -10 11 -10 5 0 7 5 4 10 -3 6 -8 10 -11 10 -2 0
-4 -4 -4 -10z"/>
<path d="M2365 2501 c-3 -5 -2 -12 3 -15 5 -3 9 1 9 9 0 17 -3 19 -12 6z"/>
<path d="M3398 2463 c7 -3 16 -2 19 1 4 3 -2 6 -13 5 -11 0 -14 -3 -6 -6z"/>
<path d="M1170 2394 c0 -6 7 -19 16 -30 14 -18 14 -18 3 6 -14 31 -19 36 -19
24z"/>
<path d="M2456 2378 c3 -5 10 -6 15 -3 13 9 11 12 -6 12 -8 0 -12 -4 -9 -9z"/>
<path d="M7075 2181 c-3 -5 -2 -12 3 -15 5 -3 9 1 9 9 0 17 -3 19 -12 6z"/>
<path d="M5399 2178 c-8 -32 -7 -48 3 -48 6 0 8 3 5 7 -4 3 -2 12 4 19 7 8 7
14 -1 19 -5 3 -10 5 -11 3z"/>
<path d="M4496 2105 c-3 -8 -1 -15 3 -15 5 0 11 7 15 15 3 8 1 15 -3 15 -5 0
-11 -7 -15 -15z"/>
<path d="M5403 1849 c-2 -23 3 -25 10 -4 4 8 3 16 -1 19 -4 3 -9 -4 -9 -15z"/>
<path d="M6766 1771 c-4 -5 -2 -12 3 -15 5 -4 12 -2 15 3 4 5 2 12 -3 15 -5 4
-12 2 -15 -3z"/>
<path d="M2675 1701 c-3 -5 -2 -12 3 -15 5 -3 9 1 9 9 0 17 -3 19 -12 6z"/>
<path d="M3970 1599 c0 -5 5 -7 10 -4 6 3 10 8 10 11 0 2 -4 4 -10 4 -5 0 -10
-5 -10 -11z"/>
<path d="M2148 1583 c7 -3 16 -2 19 1 4 3 -2 6 -13 5 -11 0 -14 -3 -6 -6z"/>
<path d="M3905 1521 c-3 -5 0 -13 6 -17 7 -4 9 -3 5 4 -3 5 0 13 6 15 9 4 10
6 1 6 -6 1 -14 -3 -18 -8z"/>
<path d="M2168 1479 c6 -9 9 -19 5 -22 -3 -4 -2 -7 4 -7 5 0 10 -7 11 -15 1
-8 3 -22 4 -30 1 -8 6 -15 11 -15 5 0 6 8 2 18 -4 9 -8 26 -11 36 -2 11 -11
27 -21 35 -15 15 -16 15 -5 0z"/>
<path d="M6450 1459 c0 -5 5 -7 10 -4 6 3 10 8 10 11 0 2 -4 4 -10 4 -5 0 -10
-5 -10 -11z"/>
<path d="M3395 1420 c-3 -5 -1 -10 4 -10 6 0 11 5 11 10 0 6 -2 10 -4 10 -3 0
-8 -4 -11 -10z"/>
<path d="M6330 1375 c-11 -13 -10 -14 4 -9 9 3 16 10 16 15 0 13 -6 11 -20 -6z"/>
<path d="M3400 1333 c5 -2 8 -9 4 -14 -3 -5 0 -9 6 -9 15 0 7 23 -8 26 -7 1
-8 0 -2 -3z"/>
<path d="M3426 982 c-2 -4 -1 -14 4 -22 7 -11 9 -9 7 8 -1 24 -3 26 -11 14z"/>
<path d="M4710 721 c0 -6 4 -12 8 -15 5 -3 9 1 9 9 0 8 -4 15 -9 15 -4 0 -8
-4 -8 -9z"/>
<path d="M3910 656 c0 -2 7 -7 16 -10 8 -3 12 -2 9 4 -6 10 -25 14 -25 6z"/>
</g>
</svg>
