<svg width="50" height="52" viewBox="0 0 50 52" fill="none" xmlns="http://www.w3.org/2000/svg">
<path d="M31.8775 4.70246C31.781 4.62511 31.6702 4.56761 31.5514 4.53326C31.4326 4.49892 31.3082 4.48842 31.1853 4.50236C31.0625 4.5163 30.9436 4.55442 30.8355 4.6145C30.7274 4.67459 30.6323 4.75546 30.5556 4.85246L21.925 15.75H17.1419L27.6175 2.52371C28.0009 2.03951 28.4762 1.63585 29.0161 1.33593C29.556 1.03601 30.1498 0.84573 30.7635 0.776036C31.3771 0.706341 31.9985 0.758602 32.5919 0.929816C33.1853 1.10103 33.739 1.38782 34.2212 1.77371L43.8719 9.50433C44.7844 10.2355 45.3907 11.2813 45.5717 12.4365C45.7528 13.5916 45.4956 14.7728 44.8506 15.7481H39.9494L41.65 13.7756C41.7323 13.6802 41.7946 13.5692 41.8331 13.4491C41.8715 13.3291 41.8854 13.2026 41.8738 13.0771C41.8623 12.9516 41.8256 12.8297 41.7658 12.7187C41.7061 12.6078 41.6246 12.51 41.5262 12.4312L36.8312 8.66996L31.2662 15.75H26.4963L33.9025 6.32621L31.8775 4.70246ZM6.25 10.125C4.75816 10.125 3.32742 10.7176 2.27252 11.7725C1.21763 12.8274 0.625 14.2581 0.625 15.75V42.9375C0.625 45.1752 1.51395 47.3213 3.09629 48.9037C4.67862 50.486 6.82474 51.375 9.0625 51.375H40.9375C43.1753 51.375 45.3214 50.486 46.9037 48.9037C48.486 47.3213 49.375 45.1752 49.375 42.9375V26.0625C49.375 23.8247 48.486 21.6786 46.9037 20.0962C45.3214 18.5139 43.1753 17.625 40.9375 17.625H6.25C5.75272 17.625 5.27581 17.4274 4.92418 17.0758C4.57254 16.7242 4.375 16.2472 4.375 15.75C4.375 15.2527 4.57254 14.7758 4.92418 14.4241C5.27581 14.0725 5.75272 13.875 6.25 13.875H14.8375L17.83 10.125H6.25ZM34.375 32.625H40C40.4973 32.625 40.9742 32.8225 41.3258 33.1741C41.6775 33.5258 41.875 34.0027 41.875 34.5C41.875 34.9972 41.6775 35.4742 41.3258 35.8258C40.9742 36.1774 40.4973 36.375 40 36.375H34.375C33.8777 36.375 33.4008 36.1774 33.0492 35.8258C32.6975 35.4742 32.5 34.9972 32.5 34.5C32.5 34.0027 32.6975 33.5258 33.0492 33.1741C33.4008 32.8225 33.8777 32.625 34.375 32.625Z" fill="#46649B"/>
</svg>
