<svg width="56" height="40" viewBox="0 0 56 40" fill="none" xmlns="http://www.w3.org/2000/svg">
<path d="M5.5 0C4.17392 0 2.90215 0.526784 1.96447 1.46447C1.02678 2.40215 0.5 3.67392 0.5 5V32.5H5.5C5.5 34.4891 6.29018 36.3968 7.6967 37.8033C9.10322 39.2098 11.0109 40 13 40C14.9891 40 16.8968 39.2098 18.3033 37.8033C19.7098 36.3968 20.5 34.4891 20.5 32.5H35.5C35.5 34.4891 36.2902 36.3968 37.6967 37.8033C39.1032 39.2098 41.0109 40 43 40C44.9891 40 46.8968 39.2098 48.3033 37.8033C49.7098 36.3968 50.5 34.4891 50.5 32.5H55.5V20L48 10H40.5V0M23 5L33 15L23 25V17.5H8V12.5H23M40.5 13.75H46.75L51.675 20H40.5M13 28.75C13.9946 28.75 14.9484 29.1451 15.6517 29.8483C16.3549 30.5516 16.75 31.5054 16.75 32.5C16.75 33.4946 16.3549 34.4484 15.6517 35.1516C14.9484 35.8549 13.9946 36.25 13 36.25C12.0054 36.25 11.0516 35.8549 10.3483 35.1516C9.64509 34.4484 9.25 33.4946 9.25 32.5C9.25 31.5054 9.64509 30.5516 10.3483 29.8483C11.0516 29.1451 12.0054 28.75 13 28.75ZM43 28.75C43.9946 28.75 44.9484 29.1451 45.6516 29.8483C46.3549 30.5516 46.75 31.5054 46.75 32.5C46.75 33.4946 46.3549 34.4484 45.6516 35.1516C44.9484 35.8549 43.9946 36.25 43 36.25C42.0054 36.25 41.0516 35.8549 40.3484 35.1516C39.6451 34.4484 39.25 33.4946 39.25 32.5C39.25 31.5054 39.6451 30.5516 40.3484 29.8483C41.0516 29.1451 42.0054 28.75 43 28.75Z" fill="#46649B"/>
</svg>
